<svg xmlns="http://www.w3.org/2000/svg" id = "svg" viewBox="5 -83 83 85">

<defs>
<style>
.cls-1{fill:#f8cdc3;}.cls-2,.cls-3{fill:none;}.cls-3,.cls-4{stroke:#b4897d;stroke-linecap:square;stroke-width:0.08px;}.cls-4,.cls-5{fill:#fff;}.cls-6{fill:#b4897d;}</style>
</defs>
<title>4.etasje_v05_grid</title>

<g id="out_area" data-name="out area" transform="scale(1, -1), rotate(-28)">
    <path class="cls-1" d="M35.7392,43.7848l17.5959-3.9041a4.2925,4.2925,0,0,1-.1265.6917,12.1866,12.1866,0,0,1-.8123,1.6863L43.8132,58.0056,38.67,61.2926l.8029,1.53c.0519.0736.6231-.4353,1.011-.56a1.8076,1.8076,0,0,1,.977.1035l-4.52,8.3265-.2526-.14.9482-1.7251-1.4938-.6109-.8875,1.5206-.47-.27-4.2724-19.17s-.1949-.76-.0349-1.0483a3.4862,3.4862,0,0,1,.6864-.7015l4.1876-3.449a1.7275,1.7275,0,0,0,.4357-.5349A1.9252,1.9252,0,0,0,35.7392,43.7848Z"/>
</g>

<g id="soner" transform="scale(1, -1), rotate(-28)">

    <g id="storey-04">
    <g id="product-04-X01-B">
    <path class="cls-2" d="M30.8675,105.526l-.5836-2.635-3.0481.675.5836,2.635,3.0481-.675"/>
    </g>
    <g id="product-04-Y05-E">
    <path class="cls-2" d="M40.1416,79.7019l-.875,1.6107h0l-.0005.0009h0l-.4129.76,1.6471.8948,1.2883-2.3716-1.6471-.8948"/>
    </g>
    <g id="product-04-X15-F">
    <path class="cls-2" d="M17.07,31.15l1.8449-.4086-.5836-2.6351-1.8449.4085L17.07,31.15"/>
    </g>
    <g id="product-04-X14-I">
    <path class="cls-2" d="M22.2331,32.7722l2.7333-.6053-.5836-2.6352L21.65,30.137l.5836,2.6352"/>
    </g>
    <g id="product-04-X07-Lb">
    <path class="cls-2" d="M35.9842,70.4048l.285-2.0242-1.6651.3687.3339,1.5082,1.0462.1473"/>
    </g>
    <g id="product-04-X07-Kb">
    <path class="cls-2" d="M34.02,66.1132l.5835,2.6352,1.1714-.26-.5836-2.6351-1.1713.2594"/>
    </g>
    <g id="product-04-X07-La">
    <path class="cls-2" d="M34.9371,70.2581l-.334-1.5086-1.4628.324.5836,2.6351,2.1436-.4747.1166-.8281-1.0465-.1473V70.258h-.0005"/>
    </g>
    <g id="product-04-X07-Ka">
    <path class="cls-2" d="M34.6029,68.7486l-.5835-2.6352-1.4629.324.5836,2.6351,1.4628-.3239"/>
    </g>
    <g id="product-04-X06-F">
    <path class="cls-2" d="M26.9951,75.9654l.5836,2.635,1.8443-.4084-.5836-2.6351-1.8443.4085"/>
    </g>
    <g id="product-04-X01-C">
    <path class="cls-2" d="M31.4477,102.632l.4016-2.8528-2.1482.4758.5836,2.635,1.163-.258"/>
    </g>
    <g id="product-04-Y01-C">
    <path class="cls-2" d="M33.8508,100.866l-2-1.0868-.4017,2.8538,1.1138.605,1.2883-2.372"/>
    </g>
    <g id="product-04-X14-G">
    <path class="cls-2" d="M19.4989,33.3777l2.7332-.6053-.5836-2.6352-2.7332.6053.5836,2.6352"/>
    </g>
    <g id="product-04-Y01-D">
    <path class="cls-2" d="M31.2737,105.61l1.2883-2.372-1.1134-.604-.4017,2.853.2268.123"/>
    </g>
    <g id="product-04-X06-C">
    <path class="cls-2" d="M23.863,73.8935l.5837,2.6352,2.5472-.5641L26.41,73.3293l-2.5473.5642"/>
    </g>
    <g id="product-04-X06-D">
    <path class="cls-2" d="M27.5777,78.6006l-.5836-2.635-2.5472.5641.5835,2.6351,2.5473-.5642"/>
    </g>
    <g id="product-04-X07-J">
    <path class="cls-2" d="M33.7229,71.7089l-.5836-2.6352-1.5709.3479.5836,2.6352,1.5709-.3479"/>
    </g>
    <g id="product-04-X13-A">
    <path class="cls-2" d="M13.2243,40.2981l3.0481-.6751-.5836-2.6351-3.0481.6751.5836,2.6351"/>
    </g>
    <g id="product-04-X08-M">
    <path class="cls-2" d="M37.4746,59.8174l-3.45.7639.5836,2.6352,2.4643-.5458.4017-2.8533"/>
    </g>
    <g id="product-04-X05-E">
    <path class="cls-2" d="M30.0069,80.8284l-.5837-2.6355-1.8443.4085.5837,2.6354,1.8443-.4084"/>
    </g>
    <g id="product-04-X07-I">
    <path class="cls-2" d="M33.1391,69.0727l-.5836-2.6351-1.5709.3479.5836,2.6351,1.5709-.3479"/>
    </g>
    <g id="product-04-X07-Hb">
    <path class="cls-2" d="M29.23,70.1954l.5685,2.5669,2.391-.53-.5684-2.5668-2.3911.53"/>
    </g>
    <g id="product-04-X07-Ha">
    <path class="cls-2" d="M29.2294,70.1957l-1.5026.3327.5685,2.5668,1.5026-.3327-.5685-2.5668"/>
    </g>
    <g id="product-04-X07-F">
    <path class="cls-2" d="M28.2554,72.92l-.5836-2.6351-1.8443.4084.5836,2.6352,1.8443-.4085"/>
    </g>
    <g id="product-04-X07-E">
    <path class="cls-2" d="M25.2437,68.0569l.5836,2.6351,1.8443-.4084-.5836-2.6352-1.8443.4085"/>
    </g>
    <g id="product-04-X08-Kb">
    <path class="cls-2" d="M34.6076,63.2167l-.5835-2.6352-1.1711.2594.5835,2.6351,1.1711-.2593"/>
    </g>
    <g id="product-04-X08-Lb">
    <path class="cls-2" d="M33.4367,63.477l.5835,2.6352,1.1712-.2594-.5835-2.6352-1.1712.2594"/>
    </g>
    <g id="product-04-X14-F">
    <path class="cls-2" d="M18.2378,36.4224l1.8449-.4086-.5836-2.6351-1.8448.4085.5835,2.6352"/>
    </g>
    <g id="product-04-X10-Ka">
    <path class="cls-2" d="M31.1007,52.9317l-.5835-2.6352-1.4635.3241.5836,2.6351,1.4634-.324"/>
    </g>
    <g id="product-04-Y14-K">
    <path class="cls-2" d="M57.13,36.6941l1.2884-2.3717-1.8163-.9867-1.2883,2.3717,1.8162.9867"/>
    </g>
    <g id="product-04-X13-K">
    <path class="cls-2" d="M28.77,36.8554,28.186,34.22l-2.7327.6052.5835,2.6351,2.7328-.6052"/>
    </g>
    <g id="product-04-X11-Ob">
    <path class="cls-2" d="M33.7419,46.8159l2.107-.4666-.31-1.4086-1.87,1.5423.0737.3329"/>
    </g>
    <g id="product-04-X08-La">
    <path class="cls-2" d="M31.8746,63.823l.5836,2.6351,1.561-.3457-.5835-2.6352-1.5611.3458"/>
    </g>
    <g id="product-04-X08-Ka">
    <path class="cls-2" d="M31.2908,61.1868l.5836,2.6352,1.5611-.3457-.5835-2.6352-1.5612.3457"/>
    </g>
    <g id="product-04-X07-C">
    <path class="cls-2" d="M25.2427,68.0571l-2.5473.5641.5836,2.6352,2.5473-.5641-.5836-2.6352"/>
    </g>
    <g id="product-04-X08-N">
    <path class="cls-2" d="M36.6711,65.5251l.4017-2.8533-2.464.5456.5836,2.6352,1.4787-.3275"/>
    </g>
    <g id="product-04-X07-B">
    <path class="cls-2" d="M23.2783,71.2576l-3.0481.675.5836,2.6352,3.0481-.6751-.5836-2.6351"/>
    </g>
    <g id="product-04-X08-J">
    <path class="cls-2" d="M31.8746,63.823l-2.6357.5837.5447,2.4594,1.1619-.2573.0389.1757,1.4738-.3264-.5836-2.6351"/>
    </g>
    <g id="product-04-X08-I">
    <path class="cls-2" d="M31.2908,61.1868l-2.6357.5837.5836,2.6352,2.6357-.5837-.5836-2.6352"/>
    </g>
    <g id="product-04-X08-H">
    <path class="cls-2" d="M29.238,64.4069l-2.52.5582.5447,2.4594,2.52-.5582-.5446-2.4594"/>
    </g>
    <g id="product-04-X09-La">
    <path class="cls-2" d="M32.8518,60.84l-.5835-2.6352-1.5613.3458.5836,2.6352,1.5612-.3458"/>
    </g>
    <g id="product-04-X11-C">
    <path class="cls-2" d="M18.6086,50.1673l2.5473-.5641-.5836-2.6351-2.5473.5641.5836,2.6351"/>
    </g>
    <g id="product-04-X11-E">
    <path class="cls-2" d="M23.0012,49.1946l-.5836-2.6352-1.8443.4084.5836,2.6352,1.8443-.4084"/>
    </g>
    <g id="product-04-X09-J">
    <path class="cls-2" d="M31.2906,61.1859l-.5836-2.6352-2.6357.5837.5836,2.6352,2.6357-.5837"/>
    </g>
    <g id="product-04-X17-E">
    <path class="cls-2" d="M14.1512,17.97l1.8443-.4085-.0924-.4176-2.0939-.7184.342,1.5445"/>
    </g>
    <g id="product-04-X17-D">
    <path class="cls-2" d="M12.1868,21.17l2.5472-.5641-.5835-2.6351-2.5473.5641.5836,2.6351"/>
    </g>
    <g id="product-04-X08-G">
    <path class="cls-2" d="M26.1337,62.3289l.5836,2.6352,2.52-.5582-.5836-2.6352-2.52.5582"/>
    </g>
    <g id="product-04-X08-C">
    <path class="cls-2" d="M24.0751,62.7848l-2.5473.5642.5836,2.6351,2.5473-.5641-.5836-2.6352"/>
    </g>
    <g id="product-04-X09-Kb">
    <path class="cls-2" d="M31.6856,55.5686l.5834,2.6351,1.171-.2593-.5836-2.6351-1.1708.2593"/>
    </g>
    <g id="product-04-X11-D">
    <path class="cls-2" d="M21.1561,49.6042l-2.5473.5641.5836,2.6352,2.5473-.5642-.5836-2.6351"/>
    </g>
    <g id="product-04-X09-M">
    <path class="cls-2" d="M32.8574,55.309l.5836,2.6352,2.6352-.5836-.5836-2.6351-2.6352.5835"/>
    </g>
    <g id="product-04-X09-Lb">
    <path class="cls-2" d="M32.2693,58.2047l.5835,2.6352,1.171-.2594L33.44,57.9454l-1.171.2593"/>
    </g>
    <g id="product-04-X15-I">
    <path class="cls-2" d="M21.0655,27.5l2.7328-.6052L23.2147,24.26l-2.7328.6052L21.0655,27.5"/>
    </g>
    <g id="product-04-X14-M">
    <path class="cls-2" d="M27.603,31.583l2.6351-.5836-.5836-2.6352-2.6351.5836.5836,2.6352"/>
    </g>
    <g id="product-04-X14-L">
    <path class="cls-2" d="M25.55,34.803l2.6356-.5837-.5836-2.6352-2.6356.5837L25.55,34.803"/>
    </g>
    <g id="product-04-X13-F">
    <path class="cls-2" d="M18.8219,39.06l.5835,2.6351,1.942-.43-.5835-2.6351-1.942.43"/>
    </g>
    <g id="product-04-Y02-A">
    <path class="cls-2" d="M35.141,98.4929l2.6761,1.4538,1.2884-2.3716-2.6762-1.4538L35.141,98.4929"/>
    </g>
    <g id="product-04-Y02-B">
    <path class="cls-2" d="M33.8522,100.865l2.6761,1.454,1.2883-2.3714-2.6761-1.4538-1.2883,2.3712"/>
    </g>
    <g id="product-04-Y10-Ia">
    <path class="cls-2" d="M48.8071,55.9252,48.06,57.3008l1.4754.8015,1.4635-2.6941-1.4753-.8015-.7158,1.3176,0,0-.0005.0008,0,0"/>
    </g>
    <g id="product-04-Y02-C">
    <path class="cls-2" d="M35.14,98.4925l1.2883-2.3717-2.3716-1.2884-1.2883,2.3717L35.14,98.4925"/>
    </g>
    <g id="product-04-X09-B">
    <path class="cls-2" d="M18.4786,64.0232l3.048-.675-.5835-2.6352-3.0481.6751.5836,2.6351"/>
    </g>
    <g id="product-04-X09-A">
    <path class="cls-2" d="M20.3592,58.0769l-3.048.6751.5835,2.6351,3.0481-.675-.5836-2.6352"/>
    </g>
    <g id="product-04-X14-K">
    <path class="cls-2" d="M24.9664,32.1669l2.6356-.5837-.5836-2.6352-2.6356.5837.5836,2.6352"/>
    </g>
    <g id="product-04-X14-N">
    <path class="cls-2" d="M28.1868,34.2191l2.6351-.5836L30.2384,31l-2.6352.5836.5836,2.6352"/>
    </g>
    <g id="product-04-Y12-H">
    <path class="cls-2" d="M56.8072,48.8105l-2.371-1.288-1.2883,2.3716,2.3709,1.288,1.2884-2.3716"/>
    </g>
    <g id="product-04-X12-O">
    <path class="cls-2" d="M31.9907,38.9085l.5836,2.6351,2.1129-.4679L34.1066,38.44l-2.1159.4686"/>
    </g>
    <g id="product-04-X12-N">
    <path class="cls-2" d="M32.5736,41.5448l-2.6352.5836.5836,2.6352,2.6351-.5836-.5835-2.6352"/>
    </g>
    <g id="product-04-X11-P">
    <path class="cls-2" d="M33.7421,46.8169l.5836,2.6351,2.1041-.466L35.8491,46.35l-2.107.4667"/>
    </g>
    <g id="product-04-X12-M">
    <path class="cls-2" d="M29.3546,39.4923l.5836,2.6351,2.6351-.5836L31.99,38.9087l-2.6352.5836"/>
    </g>
    <g id="product-04-X11-Q">
    <path class="cls-2" d="M39.9418,42.29l-4.7536,1.055L35.85,46.349l3.6338-.8047.4581-3.2541"/>
    </g>
    <g id="product-04-X09-F">
    <path class="cls-2" d="M26.1335,62.328,25.55,59.6928l-2.0576.4557.5836,2.6351,2.0576-.4556"/>
    </g>
    <g id="product-04-X09-I">
    <path class="cls-2" d="M30.0215,55.4557l-2.6356.5837.6852,3.094,2.6357-.5837-.6853-3.094"/>
    </g>
    <g id="product-04-X09-H">
    <path class="cls-2" d="M28.07,59.1346l-2.52.5582.5836,2.6352,2.52-.5582L28.07,59.1346"/>
    </g>
    <g id="product-04-X17-C">
    <path class="cls-2" d="M11.603,18.5338,14.15,17.97l-.3421-1.5451-2.892-.9922.6869,3.1014"/>
    </g>
    <g id="product-04-X08-A">
    <path class="cls-2" d="M21.5269,63.3492l-3.0481.675.5836,2.6352,3.048-.6751-.5835-2.6351"/>
    </g>
    <g id="product-04-X09-E">
    <path class="cls-2" d="M25.55,59.6918l-.5836-2.6351-2.0576.4557.5836,2.6351,2.0576-.4557"/>
    </g>
    <g id="product-04-X09-D">
    <path class="cls-2" d="M23.4913,60.1487l-2.5473.5641.5836,2.6352,2.5473-.5641-.5836-2.6352"/>
    </g>
    <g id="product-04-X08-E">
    <path class="cls-2" d="M24.0761,62.7846,24.66,65.42l2.0576-.4557-.5836-2.6352-2.0576.4557"/>
    </g>
    <g id="product-04-X09-G">
    <path class="cls-2" d="M24.8645,56.5978l.6852,3.094,2.52-.5582-.6852-3.094-2.52.5582"/>
    </g>
    <g id="product-04-X11-Nb">
    <path class="cls-2" d="M33.6673,46.4837,31.33,48.4112l.36,1.6246,2.6352-.5836-.6575-2.9685"/>
    </g>
    <g id="product-04-X11-Lb">
    <path class="cls-2" d="M31.6886,50.036l-.36-1.6241-.5664.4671-.0285.0226-.0722.071-.0647.0779-.0565.084-.0477.0893-.0384.0937-.0287.0971-.0188.0995-.0086.1009.0016.1012.0119.1006.011.0494.095.4291,1.1707-.2593"/>
    </g>
    <g id="product-04-Y00-A">
    <path class="cls-2" d="M31.0468,105.488l-.53,3.769,2.0839.293.6749-1.242.675-1.243-2.9033-1.577"/>
    </g>
    <g id="product-04-X00-A">
    <path class="cls-2" d="M30.5153,109.257l.5305-3.769-3.2262.714.6115,2.761,2.0842.294"/>
    </g>
    <g id="product-04-Y01-A">
    <path class="cls-2" d="M32.5634,103.238l2.676,1.454,1.2884-2.372-2.6761-1.454-1.2883,2.372"/>
    </g>
    <g id="product-04-Y01-B">
    <path class="cls-2" d="M35.2389,104.693l-2.676-1.454-1.2883,2.372,2.676,1.453,1.2883-2.371"/>
    </g>
    <g id="product-04-X15-H">
    <path class="cls-2" d="M18.9151,30.7415l2.7332-.6053-.5836-2.6351-2.7332.6053.5836,2.6351"/>
    </g>
    <g id="product-04-Y02-D">
    <path class="cls-2" d="M32.2522,96.9248l-.4017,2.8533,2.0008,1.0869L35.14,98.4933l-2.8874-1.5685"/>
    </g>
    <g id="product-04-Y02-E">
    <path class="cls-2" d="M32.7676,97.2036l1.2883-2.3717L32.654,94.07l-.4017,2.8533.5153.28"/>
    </g>
    <g id="product-04-Y03-A">
    <path class="cls-2" d="M41.6832,92.83l-2.6763-1.4539-1.2883,2.3717,2.6762,1.4538L41.6832,92.83"/>
    </g>
    <g id="product-04-Y07-D">
    <path class="cls-2" d="M45.656,73.48l-1.2883,2.3717L46.7393,77.14l1.2884-2.3716L45.656,73.48"/>
    </g>
    <g id="product-04-Y03-B">
    <path class="cls-2" d="M36.43,96.12l2.6762,1.4538,1.2884-2.3716-2.6763-1.4539L36.43,96.12"/>
    </g>
    <g id="product-04-Y03-C">
    <path class="cls-2" d="M36.6344,90.0873,35.3461,92.459l2.3716,1.2884,1.2883-2.3717-2.3716-1.2884"/>
    </g>
    <g id="product-04-Y03-D">
    <path class="cls-2" d="M35.3456,92.46l-1.2883,2.3716L36.4289,96.12l1.2883-2.3716L35.3456,92.46"/>
    </g>
    <g id="product-04-Y05-Jb">
    <path class="cls-2" d="M36.5468,81.2655l-1.3-.7065-.7084,1.304,1.3.7065.7084-1.304"/>
    </g>
    <g id="product-04-Y04-H">
    <path class="cls-2" d="M33.8594,85.5071l-.4463,3.1706,1.43.7767,1.4315-2.6354-2.4149-1.3119"/>
    </g>
    <g id="product-04-Y04-G">
    <path class="cls-2" d="M33.86,85.5061l2.4153,1.3121,1.2883-2.3717h0l.0005-.0009h0l.2234-.4112-3.456-1.8775-.07.4951h0l0,0,0,0L33.86,85.5061"/>
    </g>
    <g id="product-04-Y05-A">
    <path class="cls-2" d="M42.8738,84.2577,45.55,85.7116,46.8386,83.34l-2.6765-1.454-1.2883,2.3717"/>
    </g>
    <g id="product-04-X11-A">
    <path class="cls-2" d="M15.56,50.8426l3.0481-.675-.5836-2.6352-3.0481.675.5836,2.6352"/>
    </g>
    <g id="product-04-Y05-Hb">
    <path class="cls-2" d="M34.368,82.1759l3.4195,1.8576.1694-.312-3.4195-1.8576-.1694.312"/>
    </g>
    <g id="product-04-Y05-G">
    <path class="cls-2" d="M40.0548,79.86l-2.4589-1.3358-.7891,1.4525,2.459,1.3358.789-1.4525"/>
    </g>
    <g id="product-04-Y04-B">
    <path class="cls-2" d="M42.9721,90.4575l-2.6764-1.4539-1.2883,2.3717,2.6763,1.4539,1.2884-2.3717"/>
    </g>
    <g id="product-04-Y04-D">
    <path class="cls-2" d="M37.9232,87.7148l-1.2883,2.3717,2.3716,1.2883,1.2883-2.3716-2.3716-1.2884"/>
    </g>
    <g id="product-04-Y04-E">
    <path class="cls-2" d="M37.9228,87.7134l1.2883-2.3716L37.564,84.447l-1.2883,2.3716,1.6471.8948"/>
    </g>
    <g id="product-04-Y04-C">
    <path class="cls-2" d="M39.212,85.3422l-1.2883,2.3717,2.3716,1.2884,1.2883-2.3717L39.212,85.3422"/>
    </g>
    <g id="product-04-Y05-Ia">
    <path class="cls-2" d="M37.595,78.5233l-2.557-1.3891-.0437.3106v.0006h0l-.2022,1.4362,2.014,1.0941.789-1.4525"/>
    </g>
    <g id="product-04-Y06-A">
    <path class="cls-2" d="M49.4163,78.5949,46.74,77.1409l-1.2883,2.3717,2.6766,1.454,1.2883-2.3717"/>
    </g>
    <g id="product-04-Y06-B">
    <path class="cls-2" d="M48.1275,80.9675l-2.6766-1.4541-1.2883,2.3717,2.6765,1.454,1.2884-2.3716"/>
    </g>
    <g id="product-04-Y06-C">
    <path class="cls-2" d="M44.3672,75.852l-1.2883,2.3717,2.3716,1.2884L46.7389,77.14,44.3672,75.852"/>
    </g>
    <g id="product-04-Y06-D">
    <path class="cls-2" d="M45.45,79.513l-2.3717-1.2884L41.79,80.5963l2.3716,1.2883L45.45,79.513"/>
    </g>
    <g id="product-04-Y06-E">
    <path class="cls-2" d="M43.078,78.2232l1.2883-2.3716-1.6471-.8948-1.2883,2.3716,1.6471.8948"/>
    </g>
    <g id="product-04-Y09-A">
    <path class="cls-2" d="M57.15,64.36l-2.6769-1.4542-1.2884,2.3717,2.6769,1.4542L57.15,64.36"/>
    </g>
    <g id="product-04-Y07-F">
    <path class="cls-2" d="M44.3668,75.8507l1.2883-2.3717L43.92,72.5362,42.7171,74.75l.0885.0481-.0859.1582,1.6471.8948"/>
    </g>
    <g id="product-04-Y07-E">
    <path class="cls-2" d="M45.6556,73.4781l1.2883-2.3716-1.7355-.9429L43.92,72.5353l1.7356.9428"/>
    </g>
    <g id="product-04-X17-A">
    <path class="cls-2" d="M8.5539,19.2091l3.0481-.6751-.687-3.102-3.46-1.1874,1.0994,4.9645"/>
    </g>
    <g id="product-04-Y08-A">
    <path class="cls-2" d="M50.6066,70.0224l2.6768,1.4541,1.2884-2.3716L51.895,67.6507l-1.2884,2.3717"/>
    </g>
    <g id="product-04-Y08-B">
    <path class="cls-2" d="M53.2829,71.4774l-2.6767-1.4541-1.2884,2.3716,2.6767,1.4541,1.2884-2.3716"/>
    </g>
    <g id="product-04-Y08-C">
    <path class="cls-2" d="M49.5224,66.3619l-1.2883,2.3716,2.3716,1.2884L51.8941,67.65l-2.3717-1.2883"/>
    </g>
    <g id="product-04-Y06-H">
    <path class="cls-2" d="M39.4862,76.194l-1.4075,2.5909,1.9766,1.0738,1.4074-2.591L39.4862,76.194"/>
    </g>
    <g id="product-04-Y06-I">
    <path class="cls-2" d="M38.0778,78.7845l2.7491-5.06-2.9425-1.5985-.0854.1572h0l0,.0009h0L35.1354,77.186l2.9424,1.5985"/>
    </g>
    <g id="product-04-Y07-B">
    <path class="cls-2" d="M50.7052,76.2224l-2.6767-1.4541L46.74,77.14l2.6766,1.4541,1.2884-2.3717"/>
    </g>
    <g id="product-04-Y07-A">
    <path class="cls-2" d="M51.9941,73.85l-2.6768-1.4541L48.029,74.7675l2.6767,1.454L51.9941,73.85"/>
    </g>
    <g id="product-04-Y06-G">
    <path class="cls-2" d="M39.4867,76.1931l1.9765,1.0737,1.3411-2.4687-1.9765-1.0737-1.3411,2.4687"/>
    </g>
    <g id="product-04-Y08-D">
    <path class="cls-2" d="M49.3169,72.3944l1.2884-2.3716-2.3717-1.2884-1.2883,2.3717,2.3716,1.2883"/>
    </g>
    <g id="product-04-Y09-B">
    <path class="cls-2" d="M55.8606,66.7323l-2.6768-1.4541L51.8954,67.65l2.6768,1.4542,1.2884-2.3717"/>
    </g>
    <g id="product-04-Y09-F">
    <path class="cls-2" d="M49.522,66.3605,50.81,63.9888l-1.6467-.8945L47.8754,65.466l1.6466.8945"/>
    </g>
    <g id="product-04-Y09-C">
    <path class="cls-2" d="M52.1,61.6168l-1.2883,2.3716,2.3717,1.2884,1.2883-2.3717L52.1,61.6168"/>
    </g>
    <g id="product-04-Y09-D">
    <path class="cls-2" d="M50.8112,63.9893,49.5229,66.361l2.3717,1.2883,1.2883-2.3716-2.3717-1.2884"/>
    </g>
    <g id="product-04-Y09-E">
    <path class="cls-2" d="M50.8108,63.9879l1.2884-2.3716-1.6467-.8945-1.2883,2.3716,1.6466.8945"/>
    </g>
    <g id="product-04-Y12-B">
    <path class="cls-2" d="M59.6283,53.4145l2.6771,1.4544,1.2884-2.3717-2.6772-1.4543-1.2883,2.3716"/>
    </g>
    <g id="product-04-Y11-B">
    <path class="cls-2" d="M61.016,57.2423,58.339,55.788,57.0507,58.16l2.677,1.4543,1.2883-2.3716"/>
    </g>
    <g id="product-04-Y11-C">
    <path class="cls-2" d="M55.9669,54.4982l2.3717,1.2884,1.2883-2.3717-2.3716-1.2883-1.2884,2.3716"/>
    </g>
    <g id="product-04-Y11-D">
    <path class="cls-2" d="M55.9665,54.4991l-1.2884,2.3717L57.05,58.1592l1.2883-2.3717-2.3716-1.2884"/>
    </g>
    <g id="product-04-Y11-E">
    <path class="cls-2" d="M55.9661,54.4978l1.2883-2.3717-1.7352-.9426-1.2884,2.3716,1.7353.9427"/>
    </g>
    <g id="product-04-Y10-B">
    <path class="cls-2" d="M58.4383,61.9873l-2.6769-1.4542L54.473,62.9047l2.677,1.4542,1.2883-2.3716"/>
    </g>
    <g id="product-04-Y10-C">
    <path class="cls-2" d="M53.3893,59.2433l2.3717,1.2884L57.0493,58.16l-2.3716-1.2883-1.2884,2.3716"/>
    </g>
    <g id="product-04-Y11-F">
    <path class="cls-2" d="M54.6773,56.87l1.2883-2.3717L54.23,53.556,52.942,55.9276l1.7353.9427"/>
    </g>
    <g id="product-04-Y12-A">
    <path class="cls-2" d="M63.5942,52.4963l1.2884-2.3716L62.2054,48.67,60.9171,51.042l2.6771,1.4543"/>
    </g>
    <g id="product-04-Y12-E">
    <path class="cls-2" d="M58.5437,49.7527,59.832,47.381l-1.7351-.9426L56.8085,48.81l1.7352.9426"/>
    </g>
    <g id="product-04-Y07-G">
    <path class="cls-2" d="M43.9191,72.5348l1.2884-2.3716-2.37-1.2878-1.2883,2.3717,2.37,1.2877"/>
    </g>
    <g id="product-04-Y12-F">
    <path class="cls-2" d="M57.2549,52.1252l1.2883-2.3717-1.7351-.9426L55.52,51.1826l1.7352.9426"/>
    </g>
    <g id="product-04-Y08-E">
    <path class="cls-2" d="M48.2332,68.733l1.2884-2.3716-1.6467-.8945-1.2883,2.3716,1.6466.8945"/>
    </g>
    <g id="product-04-Y08-F">
    <path class="cls-2" d="M46.9444,71.1056l1.2884-2.3717-1.6467-.8945-1.2883,2.3717,1.6466.8945"/>
    </g>
    <g id="product-04-Y08-K">
    <path class="cls-2" d="M41.6645,65.1646l1.2883-2.3716-1.317-.7155-.0371.0683-1.2513,2.3033,1.3171.7155"/>
    </g>
    <g id="product-04-Y07-L">
    <path class="cls-2" d="M37.972,72.1719l1.2025-2.2134-1.4053-.7634-.7376,1.3578,0,0v.0005l-1.046-.1473-.1166.8282,1.93,1.0482.0859-.1582.088.0478"/>
    </g>
    <g id="product-04-Y06-K">
    <path class="cls-2" d="M35.4666,74.09l-.4017,2.8537-.0268.19.0964.0523,1.3743-2.53L35.4666,74.09"/>
    </g>
    <g id="product-04-Y07-K">
    <path class="cls-2" d="M39.0581,66.8225,37.77,69.1942l1.4053.7634,1.2884-2.3717-1.4053-.7634"/>
    </g>
    <g id="product-04-Y07-M">
    <path class="cls-2" d="M37.7688,69.1937l1.2884-2.3716L36.672,65.5263,36.27,68.38l1.4985.8141"/>
    </g>
    <g id="product-04-Y10-Hb">
    <path class="cls-2" d="M48.0786,59.2262l2.4595,1.336.8028-1.4778-2.4595-1.3361-.8028,1.4779"/>
    </g>
    <g id="product-04-Y08-G">
    <path class="cls-2" d="M44.1263,66.502l2.4594,1.336,1.2024-2.2135-2.4594-1.336L44.1263,66.502"/>
    </g>
    <g id="product-04-Y08-H">
    <path class="cls-2" d="M45.2969,70.2106l1.2883-2.3717-2.4594-1.336-1.2883,2.3716,2.4594,1.3361"/>
    </g>
    <g id="product-04-X10-Ib">
    <path class="cls-2" d="M25.9954,53.206,26.6583,56.2l1.6393-.363-.325-1.4675h0l0-.0009,0,0-.3377-1.525-1.6393.363"/>
    </g>
    <g id="product-04-X10-Hb">
    <path class="cls-2" d="M24.8581,55.0588l.325,1.4674L26.6573,56.2l-.3249-1.4674-1.4743.3265"/>
    </g>
    <g id="product-04-Y06-J">
    <path class="cls-2" d="M36.5093,74.6548l1.2883-2.3717-1.9292-1.048-.4017,2.8534,1.0426.5663"/>
    </g>
    <g id="product-04-Y08-I">
    <path class="cls-2" d="M45.3278,64.288l-2.46-1.3364-1.2024,2.2135,2.46,1.3364,1.2024-2.2135"/>
    </g>
    <g id="product-04-Y08-L">
    <path class="cls-2" d="M40.3757,67.5372l1.2883-2.3717L40.3469,64.45l-1.2883,2.3717,1.3171.7155"/>
    </g>
    <g id="product-04-X10-Ja">
    <path class="cls-2" d="M29.7719,55.51l-.325-1.4675-1.4733.3263.325,1.4674,1.4733-.3262"/>
    </g>
    <g id="product-04-X10-Ic">
    <path class="cls-2" d="M29.4467,54.0415l-.3378-1.525-1.4733.3263.3378,1.525,1.4733-.3263"/>
    </g>
    <g id="product-04-Y08-N">
    <path class="cls-2" d="M39.0577,66.8212,40.3461,64.45l-3.2723-1.7776-.4017,2.8533,2.3856,1.296"/>
    </g>
    <g id="product-04-X07-G">
    <path class="cls-2" d="M27.7266,70.5275l3.8947-.8626L30.9447,66.61l-3.8946.8625.6765,3.055"/>
    </g>
    <g id="product-04-Y07-I">
    <path class="cls-2" d="M41.5478,71.2466l1.2883-2.3717-2.3719-1.2885-1.2883,2.3717,2.3719,1.2885"/>
    </g>
    <g id="product-04-X06-Ja">
    <path class="cls-2" d="M34.3079,74.3458l.6857,3.0963.07-.499.4017-2.8536-1.1577.2563"/>
    </g>
    <g id="product-04-X06-Ia">
    <path class="cls-2" d="M33.7241,71.71l.5836,2.6353,1.158-.2565.4017-2.8534-2.1433.4746"/>
    </g>
    <g id="product-04-X06-Ha">
    <path class="cls-2" d="M31.5742,74.9513l.5835,2.635,1.1609-.2571-.5835-2.635-1.1609.2571"/>
    </g>
    <g id="product-04-Y09-K">
    <path class="cls-2" d="M44.2135,57.3324l-1.2884,2.3717,1.317.7154L45.53,58.0479l-1.3169-.7155"/>
    </g>
    <g id="product-04-Y10-R">
    <path class="cls-2" d="M40.7564,52.3817,38.681,51.2543l-.4017,2.8533,1.1887.6458,1.2884-2.3717"/>
    </g>
    <g id="product-04-X15-J">
    <path class="cls-2" d="M21.6493,30.136l2.7333-.6053-.5836-2.6352-2.7333.6054.5836,2.6351"/>
    </g>
    <g id="product-04-Y05-Ha">
    <path class="cls-2" d="M37.9574,83.7207l1.3079-2.4077-2.1181-1.1507L35.8393,82.57l2.1181,1.1507"/>
    </g>
    <g id="product-04-Y07-H">
    <path class="cls-2" d="M42.7162,74.7492l1.2025-2.2135-2.37-1.2877-1.2024,2.2135,2.37,1.2877"/>
    </g>
    <g id="product-04-X05-J">
    <path class="cls-2" d="M33.587,80.0365,31.88,83.1789l2.38-.5271v-.0006l.4015-2.8527-1.0749.238"/>
    </g>
    <g id="product-04-X06-Ga">
    <path class="cls-2" d="M31.0293,72.4908l.5447,2.46,1.1608-.2571-.5447-2.46-1.1608.2571"/>
    </g>
    <g id="product-04-X05-G">
    <path class="cls-2" d="M32.158,77.5873l.5836,2.6354.8447-.1871.7379-1.3584-.8032-.4366-.2017-.91-1.1613.2572"/>
    </g>
    <g id="product-04-X04-Eb">
    <path class="cls-2" d="M30.9191,84.9477l-.7468,1.3748,1.0022-.2219-.2554-1.1529"/>
    </g>
    <g id="product-04-Y11-I">
    <path class="cls-2" d="M50.7747,48.6061l-1.2883,2.3716,2.3718,1.2885,1.2884-2.3717-2.3719-1.2884"/>
    </g>
    <g id="product-04-X13-I">
    <path class="cls-2" d="M25.4523,34.8257l-2.6352.5836.5836,2.6351,2.6352-.5836-.5836-2.6351"/>
    </g>
    <g id="product-04-X04-Fb">
    <path class="cls-2" d="M29.9229,86.7817l1.5942.866-.3424-1.5461-1.003.2221-.2488.458"/>
    </g>
    <g id="product-04-X14-J">
    <path class="cls-2" d="M22.8169,35.4083,25.55,34.803l-.5836-2.6352-2.7333.6054.5836,2.6351"/>
    </g>
    <g id="product-04-Y11-J">
    <path class="cls-2" d="M49.4859,50.9786l-1.5127,2.7848,2.3718,1.2885,1.5128-2.7848-2.3719-1.2885"/>
    </g>
    <g id="product-04-X13-J">
    <path class="cls-2" d="M23.9845,40.6805l2.6352-.5836-.5836-2.6351-2.6352.5836.5836,2.6351"/>
    </g>
    <g id="product-04-X13-H">
    <path class="cls-2" d="M20.7648,38.6292l.5836,2.6351,2.6351-.5836L23.4,38.0456l-2.6351.5836"/>
    </g>
    <g id="product-04-Y05-D">
    <path class="cls-2" d="M41.5841,86.63l1.2883-2.3716L40.5008,82.97l-1.2883,2.3717L41.5841,86.63"/>
    </g>
    <g id="product-04-X13-O">
    <path class="cls-2" d="M30.8231,33.6363l.5836,2.6351,2.1188-.4693-.5806-2.6357-2.1218.47"/>
    </g>
    <g id="product-04-Y10-Ga">
    <path class="cls-2" d="M52.3273,56.13l-1.4635,2.6942.4775.2594,1.4635-2.6942-.4775-.2594"/>
    </g>
    <g id="product-04-X15-D">
    <path class="cls-2" d="M14.522,31.7144l2.5473-.5641-.5836-2.6351-2.5473.5641.5836,2.6351"/>
    </g>
    <g id="product-04-X16-F">
    <path class="cls-2" d="M15.9026,25.8778l1.8443-.4084-.5835-2.6352-1.8444.4085.5836,2.6351"/>
    </g>
    <g id="product-04-X15-B">
    <path class="cls-2" d="M11.4729,32.39l3.0481-.675L13.9374,29.08l-3.0481.675.5836,2.6352"/>
    </g>
    <g id="product-04-X15-A">
    <path class="cls-2" d="M10.8891,29.7536l3.0481-.6751-.5836-2.6351-3.0481.675.5836,2.6352"/>
    </g>
    <g id="product-04-X15-C">
    <path class="cls-2" d="M13.9382,29.0783l2.5473-.5641-.5836-2.6352-2.5473.5642.5836,2.6351"/>
    </g>
    <g id="product-04-X15-E">
    <path class="cls-2" d="M16.4864,28.514l1.8443-.4085L17.7472,25.47l-1.8444.4084.5836,2.6352"/>
    </g>
    <g id="product-04-X13-D">
    <path class="cls-2" d="M19.4045,41.6948,18.8209,39.06l-2.5473.5641.5836,2.6352,2.5473-.5642"/>
    </g>
    <g id="product-04-Y10-Ib">
    <path class="cls-2" d="M48.1965,53.8859l-.7158,1.3176,1.326.72.7158-1.3177-1.326-.72"/>
    </g>
    <g id="product-04-Y10-Ic">
    <path class="cls-2" d="M46.7329,56.58l1.326.72.7473-1.3757-1.326-.72L46.7329,56.58"/>
    </g>
    <g id="product-04-Y05-Ib">
    <path class="cls-2" d="M36.5472,81.2646l.5991-1.1028-1.3-.7064-.599,1.1028,1.3.7064"/>
    </g>
    <g id="product-04-Y05-Ja">
    <path class="cls-2" d="M34.3671,82.1754l1.4779-2.7205-1.0532-.5721-.4607,3.2731.036.0195"/>
    </g>
    <g id="product-04-Y10-P">
    <path class="cls-2" d="M40.7573,52.3822l-1.2884,2.3717,2.3717,1.2883,1.2883-2.3716-2.3716-1.2884"/>
    </g>
    <g id="product-04-X16-H">
    <path class="cls-2" d="M17.7479,25.4692l2.7328-.6052-.5836-2.6352-2.7328.6052.5836,2.6352"/>
    </g>
    <g id="product-04-Y08-M">
    <path class="cls-2" d="M40.3465,64.4487l1.2513-2.3033.0371-.0684-2.3716-1.2884L37.9749,63.16l2.3716,1.2884"/>
    </g>
    <g id="product-04-X16-L">
    <path class="cls-2" d="M23.2154,24.2583l2.6352-.5836L25.267,21.04l-2.6351.5836.5835,2.6351"/>
    </g>
    <g id="product-04-X16-J">
    <path class="cls-2" d="M20.4817,24.8638l2.7328-.6053-.5836-2.6351-2.7328.6052.5836,2.6352"/>
    </g>
    <g id="product-04-X16-I">
    <path class="cls-2" d="M19.8979,22.2276l2.7328-.6052-.52-2.3492-3.1026-1.0645.89,4.0189"/>
    </g>
    <g id="product-04-Y09-P">
    <path class="cls-2" d="M40.5512,58.4156l-2.6738-1.4525-.4017,2.8533,1.7872.9709,1.2883-2.3717"/>
    </g>
    <g id="product-04-Y10-Gb">
    <path class="cls-2" d="M51.6107,57.4471l.7158-1.3176L51,55.4087l-.7158,1.3176,1.3269.7208"/>
    </g>
    <g id="product-04-Y10-N">
    <path class="cls-2" d="M44.2131,57.3311l1.2883-2.3717L43.13,53.6711l-1.2884,2.3716,2.3717,1.2884"/>
    </g>
    <g id="product-04-X16-K">
    <path class="cls-2" d="M22.6316,21.6222l2.6352-.5836L25.1032,20.3l-2.9917-1.0265.52,2.3486"/>
    </g>
    <g id="product-04-X15-G">
    <path class="cls-2" d="M18.3317,28.1053,21.0645,27.5l-.5836-2.6352-2.7328.6053.5836,2.6351"/>
    </g>
    <g id="product-04-Y09-O">
    <path class="cls-2" d="M37.8775,56.962l2.6742,1.4528L41.84,56.0431l-3.5609-1.9344-.4017,2.8533"/>
    </g>
    <g id="product-04-X14-P">
    <path class="cls-2" d="M30.8229,33.6353l2.1218-.47L32.3641,30.53,30.2393,31l.5836,2.6352"/>
    </g>
    <g id="product-04-X06-A">
    <path class="cls-2" d="M23.8621,73.8937l-3.0481.675.5836,2.6353,3.0481-.6751-.5836-2.6352"/>
    </g>
    <g id="product-04-X14-H">
    <path class="cls-2" d="M20.0827,36.0138l2.7332-.6053-.5836-2.6351-2.7332.6053.5836,2.6351"/>
    </g>
    <g id="product-04-X06-B">
    <path class="cls-2" d="M24.4459,76.53l-3.0481.675.5836,2.6351,3.0481-.675L24.4459,76.53"/>
    </g>
    <g id="product-04-X12-B">
    <path class="cls-2" d="M14.9757,48.2065l3.0481-.6751L17.44,44.8963l-3.0481.675.5836,2.6352"/>
    </g>
    <g id="product-04-Y14-F">
    <path class="cls-2" d="M62.41,42.635l1.2883-2.3716-1.6466-.8946-1.2883,2.3717,1.6466.8945"/>
    </g>
    <g id="product-04-Y14-E">
    <path class="cls-2" d="M63.6989,40.2625l1.2883-2.3717-1.6466-.8945L62.0523,39.368l1.6466.8945"/>
    </g>
    <g id="product-04-Y14-D">
    <path class="cls-2" d="M64.7826,43.9239l1.2883-2.3717-2.3716-1.2884L62.411,42.6355l2.3716,1.2884"/>
    </g>
    <g id="product-04-Y14-C">
    <path class="cls-2" d="M66.0714,41.5513,67.36,39.18l-2.3716-1.2884L63.7,40.2629l2.3716,1.2884"/>
    </g>
    <g id="product-04-Y14-B">
    <path class="cls-2" d="M68.7492,43.0071l-2.6774-1.4544-1.2883,2.3717,2.6773,1.4544,1.2884-2.3717"/>
    </g>
    <g id="product-04-Y09-L">
    <path class="cls-2" d="M42.9533,62.7921,44.2416,60.42l-1.317-.7154-1.2883,2.3716,1.317.7155"/>
    </g>
    <g id="product-04-Y14-H">
    <path class="cls-2" d="M60.7626,41.74l1.2883-2.3716-2.4594-1.3361L58.3031,40.404l2.4595,1.336"/>
    </g>
    <g id="product-04-Y14-G">
    <path class="cls-2" d="M62.0514,39.3675,63.34,36.9958,60.88,35.66l-1.2884,2.3717,2.4595,1.3361"/>
    </g>
    <g id="product-04-Y13-L">
    <path class="cls-2" d="M53.2637,43.8117,54.5521,41.44,53.17,40.6892l-.03.0965-.07.19-.0795.1861-.0886.1818-.09.1613-.8647,1.5918,1.3167.7153"/>
    </g>
    <g id="product-04-Y14-A">
    <path class="cls-2" d="M70.038,40.6346,67.3606,39.18l-1.2883,2.3717L68.75,43.0063l1.2883-2.3717"/>
    </g>
    <g id="product-04-Y13-K">
    <path class="cls-2" d="M54.5525,41.4391l1.2884-2.3716-1.8162-.9866-.669,1.2317.0037.1011-.0026.2023-.0126.2019-.0226.201-.0324.2-.0423.1978-.0521.1954-.0245.0765,1.3822.7508"/>
    </g>
    <g id="product-04-Y13-N">
    <path class="cls-2" d="M51.9462,43.0959l.8647-1.5917.09-.1615.0886-.1818.0794-.186.07-.19.03-.0965-1.7439-.9473-.8281.1838-1.0226,1.8824,2.3717,1.2883"/>
    </g>
    <g id="product-04-Y13-M">
    <path class="cls-2" d="M53.3584,39.4142l-.0037-.1011-1.928.428,1.7427.9467.0243-.0758.0521-.1954.0423-.1978.0325-.2.0226-.201.0126-.2018.0026-.2022"/>
    </g>
    <g id="product-04-Y13-G">
    <path class="cls-2" d="M58.3027,40.4048l-1.2884,2.3717,2.4595,1.3361,1.2883-2.3717-2.4594-1.3361"/>
    </g>
    <g id="product-04-Y13-J">
    <path class="cls-2" d="M55.7247,45.1486l1.2883-2.3717-2.46-1.3364-1.2883,2.3717,2.46,1.3364"/>
    </g>
    <g id="product-04-Y13-I">
    <path class="cls-2" d="M55.8417,39.068,54.5534,41.44l2.46,1.3364,1.2883-2.3716-2.46-1.3364"/>
    </g>
    <g id="product-04-Y13-A">
    <path class="cls-2" d="M63.4947,46.2969l2.6772,1.4544L67.46,45.38,64.783,43.9252l-1.2883,2.3717"/>
    </g>
    <g id="product-04-Y12-T">
    <path class="cls-2" d="M43.6079,41.4765l-3.6651.8134-.0563.4,2.3644,1.2844,1.357-2.4979"/>
    </g>
    <g id="product-04-Y12-L">
    <path class="cls-2" d="M50.7743,48.6047l1.2883-2.3717L50.6577,45.47l-1.2884,2.3717,1.405.7632"/>
    </g>
    <g id="product-04-Y12-R">
    <path class="cls-2" d="M45.9118,42.8916,43.54,41.6033l-1.2883,2.3716,2.3716,1.2884,1.2884-2.3717"/>
    </g>
    <g id="product-04-Y12-Q">
    <path class="cls-2" d="M47.1018,40.701l-3.4926.7752-.0686.1262,2.3717,1.2883,1.1895-2.19"/>
    </g>
    <g id="product-04-Y13-E">
    <path class="cls-2" d="M61.1213,45.0076,62.41,42.6359l-1.6466-.8945L59.4746,44.113l1.6467.8946"/>
    </g>
    <g id="product-04-Y13-C">
    <path class="cls-2" d="M63.4938,46.2964l1.2883-2.3716-2.3716-1.2884L61.1222,45.008l2.3716,1.2884"/>
    </g>
    <g id="product-04-Y13-B">
    <path class="cls-2" d="M66.1715,47.7522l-2.6773-1.4544-1.2883,2.3716,2.6772,1.4544,1.2884-2.3716"/>
    </g>
    <g id="product-04-Y11-T">
    <path class="cls-2" d="M39.4846,45.5455l-.4017,2.8533.59.3207,1.2884-2.3717-1.477-.8023"/>
    </g>
    <g id="product-04-Y12-P">
    <path class="cls-2" d="M45.9127,42.8921l-1.2884,2.3717,2.3716,1.2883,1.2884-2.3716-2.3716-1.2884"/>
    </g>
    <g id="product-04-Y12-O">
    <path class="cls-2" d="M47.1031,40.7007l-1.19,2.1905L48.2848,44.18l1.2884-2.3716L47.41,40.6327l-.3066.068"/>
    </g>
    <g id="product-04-Y12-N">
    <path class="cls-2" d="M49.3685,47.841l1.2883-2.3717L48.2852,44.181l-1.2884,2.3716,2.3717,1.2884"/>
    </g>
    <g id="product-04-Y11-G">
    <path class="cls-2" d="M53.1474,49.895l-1.2883,2.3717L54.23,53.5546l1.2883-2.3716-2.3709-1.288"/>
    </g>
    <g id="product-04-Y12-M">
    <path class="cls-2" d="M51.9457,43.0968,49.574,41.8084,48.2857,44.18l2.3716,1.2884,1.2884-2.3717"/>
    </g>
    <g id="product-04-Y12-G">
    <path class="cls-2" d="M58.096,46.438,55.7251,45.15l-1.2884,2.3717,2.371,1.288L58.096,46.438"/>
    </g>
    <g id="product-04-X12-G">
    <path class="cls-2" d="M21.9322,43.9l2.6351-.5835-.5836-2.6352-2.6351.5836L21.9322,43.9"/>
    </g>
    <g id="product-04-Y09-G">
    <path class="cls-2" d="M49.1309,63.1527l1.4067-2.59-1.9767-1.0738-1.4068,2.59,1.9768,1.0738"/>
    </g>
    <g id="product-04-X-11-I">
    <path class="cls-2" d="M29.0914,50.7956l-1.2452-5.6228-3.27.7241L25.8217,51.52l3.27-.7241"/>
    </g>
    <g id="product-04-X04-Gb">
    <path class="cls-2" d="M30.5919,83.4652l.3276,1.48.9586-1.7645-1.2862.2848"/>
    </g>
    <g id="product-04-Y07-C">
    <path class="cls-2" d="M46.9448,71.1069l-1.2883,2.3717,2.3716,1.2884,1.2884-2.3717-2.3717-1.2884"/>
    </g>
    <g id="product-04-X16-C">
    <path class="cls-2" d="M12.7706,23.8061l2.5472-.5642-.5835-2.6351-2.5473.5641.5836,2.6352"/>
    </g>
    <g id="product-04-Y05-B">
    <path class="cls-2" d="M45.55,85.7125l-2.6765-1.454L41.585,86.63l2.6764,1.4539L45.55,85.7125"/>
    </g>
    <g id="product-04-Y11-R">
    <path class="cls-2" d="M43.3341,47.6367l-2.3716-1.2884L39.6741,48.72l2.3716,1.2884,1.2884-2.3716"/>
    </g>
    <g id="product-04-Y11-P">
    <path class="cls-2" d="M43.335,47.6372l-1.2884,2.3716,2.3716,1.2884,1.2884-2.3717L43.335,47.6372"/>
    </g>
    <g id="product-04-X16-D">
    <path class="cls-2" d="M13.3544,26.4422l2.5472-.5641-.5835-2.6352-2.5473.5641.5836,2.6352"/>
    </g>
    <g id="product-04-Y11-Q">
    <path class="cls-2" d="M44.6229,45.2642l-2.3716-1.2884-1.2884,2.3716,2.3717,1.2884,1.2883-2.3716"/>
    </g>
    <g id="product-04-X16-E">
    <path class="cls-2" d="M15.3188,23.2417l1.8443-.4084L16.58,20.1981l-1.8443.4085.5836,2.6351"/>
    </g>
    <g id="product-04-X13-C">
    <path class="cls-2" d="M15.69,36.9877l.5836,2.6351,2.5473-.5641-.5836-2.6351-2.5473.5641"/>
    </g>
    <g id="product-04-X17-B">
    <path class="cls-2" d="M9.1377,21.8452l3.0481-.6751-.5836-2.6351-3.0481.675.5836,2.6352"/>
    </g>
    <g id="product-04-Y15-L">
    <path class="cls-2" d="M58.4189,34.3215,59.6038,32.14l-1.9819-.6819-1.0193,1.8764,1.8163.9867"/>
    </g>
    <g id="product-04-Y15-J">
    <path class="cls-2" d="M60.88,35.6584l1.4092-2.5942-2.6843-.9236L58.42,34.322l2.46,1.3364"/>
    </g>
    <g id="product-04-X05-A">
    <path class="cls-2" d="M22.5652,82.4764l3.0481-.675L25.03,79.1659l-3.0481.6751.5836,2.6354"/>
    </g>
    <g id="product-04-X05-F">
    <path class="cls-2" d="M30.5907,83.4644l-.5836-2.6351-1.8443.4085.5835,2.6351,1.8444-.4085"/>
    </g>
    <g id="product-04-Y13-H">
    <path class="cls-2" d="M57.0139,42.7774l-1.2884,2.3717,2.46,1.336,1.2883-2.3716-2.4594-1.3361"/>
    </g>
    <g id="product-04-X05-G-2" data-name="product-04-X05-G">
    <path class="cls-2" d="M32.7406,80.2229l-.5836-2.6354-2.7328.6052.5836,2.6354,2.7328-.6052"/>
    </g>
    <g id="product-04-X05-H">
    <path class="cls-2" d="M31.8787,83.1792l1.707-3.1424-3.5776.7923.5835,2.6351,1.2871-.285"/>
    </g>
    <g id="product-04-Y10-M">
    <path class="cls-2" d="M46.79,52.5869l-2.3717-1.2884L43.13,53.67l2.3716,1.2884L46.79,52.5869"/>
    </g>
    <g id="product-04-Y09-N">
    <path class="cls-2" d="M42.9238,59.7045l-2.3717-1.2884-1.2884,2.3717,2.3717,1.2883,1.2884-2.3716"/>
    </g>
    <g id="product-04-Y15-B">
    <path class="cls-2" d="M70.0385,40.6337l2.2443-4.1312-2.9216-1.0052-2,3.682,2.6774,1.4544"/>
    </g>
    <g id="product-04-X06-E">
    <path class="cls-2" d="M26.4113,73.3291l.5836,2.6353,1.8443-.4085-.5836-2.6352-1.8443.4084"/>
    </g>
    <g id="product-04-X07-D">
    <path class="cls-2" d="M25.8265,70.6932l-2.5473.5642.5836,2.6351,2.5473-.5641-.5836-2.6352"/>
    </g>
    <g id="product-04-X09-Ka">
    <path class="cls-2" d="M32.2681,58.204l-.5835-2.6352-1.5614.3458.5836,2.6351,1.5613-.3457"/>
    </g>
    <g id="product-04-Y12-D">
    <path class="cls-2" d="M59.6274,53.4141l1.2883-2.3717L58.5441,49.754l-1.2884,2.3717,2.3717,1.2884"/>
    </g>
    <g id="product-04-X10-Ha">
    <path class="cls-2" d="M23.989,53.65l.6629,2.9934.53-.1174-.663-2.9934-.53.1174"/>
    </g>
    <g id="product-04-Y11-H">
    <path class="cls-2" d="M51.8586,52.2676l-1.5127,2.7848L52.7167,56.34,54.23,53.5555l-2.3709-1.2879"/>
    </g>
    <g id="product-04-Y04-A">
    <path class="cls-2" d="M44.2609,88.085l-2.6764-1.4539-1.2883,2.3717,2.6763,1.4539,1.2884-2.3717"/>
    </g>
    <g id="product-04-Y14-L">
    <path class="cls-2" d="M55.8413,39.0666,57.13,36.6949l-1.8162-.9866L54.0252,38.08l1.8161.9866"/>
    </g>
    <g id="product-04-X05-Ib">
    <path class="cls-2" d="M34.6621,79.7974l.1288-.9151-.4455-.242-.7578,1.3951,1.0745-.238"/>
    </g>
    <g id="product-04-Y04-F">
    <path class="cls-2" d="M36.634,90.086l1.2883-2.3717L36.2752,86.82l-1.2883,2.3717,1.6471.8948"/>
    </g>
    <g id="product-04-Y10-A">
    <path class="cls-2" d="M59.7272,59.6148,57.05,58.1605l-1.2884,2.3717,2.677,1.4542,1.2884-2.3716"/>
    </g>
    <g id="product-04-X10-Gb">
    <path class="cls-2" d="M25.9944,53.2062l-1.4743.3265.3378,1.5251,1.4742-.3265-.3377-1.5251"/>
    </g>
    <g id="product-04-X08-D">
    <path class="cls-2" d="M24.6589,65.421l-2.5473.5641.5836,2.6351,2.5473-.5641-.5836-2.6351"/>
    </g>
    <g id="product-04-X10-Jb">
    <path class="cls-2" d="M30.1185,55.4332l-.663-2.9935-.3456.0766.663,2.9934.3456-.0765"/>
    </g>
    <g id="product-04-X13-P">
    <path class="cls-2" d="M31.4069,36.2723l.5836,2.6352,2.1159-.4686-.5806-2.6358-2.1189.4692"/>
    </g>
    <g id="product-04-Y10-Ha">
    <path class="cls-2" d="M50.8629,58.8236,51.61,57.448l-1.3269-.7208-.7473,1.3756,1.3269.7208"/>
    </g>
    <g id="product-04-Y09-H">
    <path class="cls-2" d="M47.1537,62.08l-1.3419,2.47,1.9768,1.0739.0854-.1573h0l.0005-.0009h0L49.13,63.1536,47.1537,62.08"/>
    </g>
    <g id="product-04-Y07-N">
    <path class="cls-2" d="M37.0309,70.5521l.7375-1.3575L36.27,68.3807l-.285,2.0243,1.0457.1471"/>
    </g>
    <g id="product-04-Y09-I">
    <path class="cls-2" d="M45.811,64.5493l2.749-5.0605L45.6172,57.89l-2.7489,5.06,2.9427,1.5986"/>
    </g>
    <g id="product-04-X16-N">
    <path class="cls-2" d="M25.8516,23.6745l2.6351-.5836-.3906-1.7639-2.9918-1.0265.7473,3.374"/>
    </g>
    <g id="product-04-X12-E">
    <path class="cls-2" d="M19.4057,41.6956l.5835,2.6351,1.9425-.43-.5836-2.6352-1.9424.43"/>
    </g>
    <g id="product-04-X12-P">
    <path class="cls-2" d="M32.5745,41.5446l.5836,2.6352,2.11-.4673-.5807-2.6358-2.1129.4679"/>
    </g>
    <g id="product-04-Y12-K">
    <path class="cls-2" d="M51.9466,43.0973l-1.2884,2.3716,1.4049.7633,1.2883-2.3717-1.4048-.7632"/>
    </g>
    <g id="product-04-X05-D">
    <path class="cls-2" d="M28.7454,83.8731l-.5836-2.6351-2.5473.5641.5836,2.6351,2.5473-.5641"/>
    </g>
    <g id="product-04-X-11-H">
    <path class="cls-2" d="M25.8207,51.52l-.6372-2.8773-2.1958.4863.6372,2.8773,2.1958-.4863"/>
    </g>
    <g id="product-04-Y10-J">
    <path class="cls-2" d="M48.8805,57.7478l-2.46-1.3364-.8028,1.4779,2.46,1.3364.8028-1.4779"/>
    </g>
    <g id="product-04-Y12-J">
    <path class="cls-2" d="M54.4354,47.522l-2.3719-1.2885-1.2883,2.3717,2.3718,1.2885,1.2884-2.3717"/>
    </g>
    <g id="product-04-X14-O">
    <path class="cls-2" d="M30.2391,30.9992l2.1248-.4706-.5807-2.6358-2.1277.4712.5836,2.6352"/>
    </g>
    <g id="product-04-X09-P">
    <path class="cls-2" d="M37.4747,59.8163l.4017-2.8533-1.799.3984.5835,2.6351.8138-.18"/>
    </g>
    <g id="product-04-X12-A">
    <path class="cls-2" d="M14.3919,45.57l3.0481-.675L16.8564,42.26l-3.0481.675.5836,2.6351"/>
    </g>
    <g id="product-04-X11-Oa">
    <path class="cls-2" d="M33.668,46.4819l1.87-1.5423-.27-1.2261-2.11.4672.51,2.3012"/>
    </g>
    <g id="product-04-X13-G">
    <path class="cls-2" d="M20.181,35.9931l.5836,2.6351L23.4,38.0446,22.8161,35.41l-2.6351.5836"/>
    </g>
    <g id="product-04-Y12-I">
    <path class="cls-2" d="M54.4358,47.5211,55.7242,45.15,53.3523,43.861,52.064,46.2326l2.3718,1.2885"/>
    </g>
    <g id="product-04-X13-L">
    <path class="cls-2" d="M28.77,36.8564l-2.7327.6052.5835,2.6351,2.7328-.6052L28.77,36.8564"/>
    </g>
    <g id="product-04-X13-N">
    <path class="cls-2" d="M31.406,36.2726l-2.6352.5835.5836,2.6352,2.6351-.5836-.5835-2.6351"/>
    </g>
    <g id="product-04-X13-M">
    <path class="cls-2" d="M28.187,34.22l.5836,2.6351,2.6351-.5836-.5835-2.6351L28.187,34.22"/>
    </g>
    <g id="product-04-X12-C">
    <path class="cls-2" d="M17.441,44.8951l2.5473-.5641-.5836-2.6352-2.5473.5641.5836,2.6352"/>
    </g>
    <g id="product-04-X15-N">
    <path class="cls-2" d="M27.0192,28.9468l2.6351-.5836-.5836-2.6352-2.6351.5836.5836,2.6352"/>
    </g>
    <g id="product-04-X15-M">
    <path class="cls-2" d="M26.4354,26.3107l2.6351-.5836-.5836-2.6352-2.6351.5836.5836,2.6352"/>
    </g>
    <g id="product-04-X15-L">
    <path class="cls-2" d="M24.3826,29.5307l2.6356-.5837-.5836-2.6352-2.6356.5837.5836,2.6352"/>
    </g>
    <g id="product-04-X11-G">
    <path class="cls-2" d="M25.1833,48.6416l-.6078-2.7445-2.1959.4863.6078,2.7445,2.1959-.4863"/>
    </g>
    <g id="product-04-X11-F">
    <path class="cls-2" d="M21.1571,49.604l.5836,2.6351,1.8443-.4084-.5836-2.6352-1.8443.4085"/>
    </g>
    <g id="product-04-X12-F">
    <path class="cls-2" d="M22.4767,46.3614l-.5453-2.46-1.9419.43.5836,2.6352,1.8443-.4085-.0384-.1753.0977-.0217"/>
    </g>
    <g id="product-04-X12-D">
    <path class="cls-2" d="M17.4412,44.8961l.5836,2.6351,2.5473-.5641-.5836-2.6352-2.5473.5642"/>
    </g>
    <g id="product-04-X12-I">
    <path class="cls-2" d="M26.62,40.0979l-2.6352.5836.5836,2.6352,2.6352-.5836L26.62,40.0979"/>
    </g>
    <g id="product-04-X12-H">
    <path class="cls-2" d="M24.5675,43.3178l-2.6351.5836.5447,2.4594,2.6351-.5835-.5447-2.4595"/>
    </g>
    <g id="product-04-X11-K">
    <path class="cls-2" d="M27.8861,45.3483l.5836,2.6352L31.1048,47.4l-.5836-2.6352-2.6351.5836"/>
    </g>
    <g id="product-04-X11-M">
    <path class="cls-2" d="M33.1574,44.1809l-2.6352.5836L31.1058,47.4l1.9813-.4388.58-.4782-.51-2.3018"/>
    </g>
    <g id="product-04-X11-La">
    <path class="cls-2" d="M30.7334,48.9009l.0285-.0227.5668-.4674-.2237-1.01-2.6351.5836.5836,2.6351,1.4634-.3241-.095-.4291-.011-.05-.0119-.1006-.0016-.1014.0086-.1009.0188-.1.0288-.0972.0384-.0938.0477-.0894.0566-.0841.0647-.078.0724-.071"/>
    </g>
    <g id="product-04-X10-La">
    <path class="cls-2" d="M31.6844,55.5678l-.5835-2.6352-1.4634.3241.4816,2.1769-.0981.0218.102.4582,1.5614-.3458"/>
    </g>
    <g id="product-04-X11-Na">
    <path class="cls-2" d="M31.33,48.41l1.7558-1.4478-1.9794.4384L31.33,48.41"/>
    </g>
    <g id="product-04-X10-A">
    <path class="cls-2" d="M19.1916,52.8047l-3.048.675.5835,2.6352,3.0481-.6751-.5836-2.6351"/>
    </g>
    <g id="product-04-X09-N">
    <path class="cls-2" d="M34.0248,60.58l2.6352-.5836-.5836-2.6351-2.6352.5836.5836,2.6351"/>
    </g>
    <g id="product-04-X16-G">
    <path class="cls-2" d="M17.1641,22.8331l2.7328-.6053-.5836-2.6351-2.7328.6052.5836,2.6352"/>
    </g>
    <g id="product-04-X10-Ga">
    <path class="cls-2" d="M26.3579,51.402l-2.7328.6052.3637,1.6422,2.7328-.6052-.3637-1.6422"/>
    </g>
    <g id="product-04-X10-F">
    <path class="cls-2" d="M24.6516,56.6444l-.4826-2.1766-1.8443.4084.5836,2.6352,2.0576-.4557-.101-.4583-.2133.047"/>
    </g>
    <g id="product-04-X15-O">
    <path class="cls-2" d="M29.0715,25.7269l2.1307-.4719-.5807-2.6358-2.1336.4725.5836,2.6352"/>
    </g>
    <g id="product-04-X10-D">
    <path class="cls-2" d="M22.9073,57.5116l-.5836-2.6352-2.5473.5642.5836,2.6351,2.5473-.5641"/>
    </g>
    <g id="product-04-X10-E">
    <path class="cls-2" d="M24.1688,54.4668l-.5836-2.6351-1.8443.4084.5836,2.6352,1.8443-.4085"/>
    </g>
    <g id="product-04-X10-C">
    <path class="cls-2" d="M22.3235,54.8755,21.74,52.24l-2.5473.5641.5836,2.6352,2.5473-.5641"/>
    </g>
    <g id="product-04-X09-O">
    <path class="cls-2" d="M37.8765,56.9619l.4017-2.8533-2.7846.6166.5835,2.6352,1.7994-.3985"/>
    </g>
    <g id="product-04-Y14-I">
    <path class="cls-2" d="M59.5911,38.0309l1.2883-2.3716-2.46-1.3364L57.131,36.6945l2.46,1.3364"/>
    </g>
    <g id="product-04-Y10-K">
    <path class="cls-2" d="M46.7912,52.5874,45.5028,54.959l1.3169.7154,1.0641-1.9589.0006,0,0-.0005.0877.0476.2239-.4122-1.405-.7633"/>
    </g>
    <g id="product-04-Y11-O">
    <path class="cls-2" d="M44.6238,45.2646l-1.2883,2.3717,2.3716,1.2884,1.2884-2.3717-2.3717-1.2884"/>
    </g>
    <g id="product-04-Y11-N">
    <path class="cls-2" d="M46.7908,52.586l1.2883-2.3716L45.7075,48.926l-1.2884,2.3717,2.3717,1.2883"/>
    </g>
    <g id="product-04-Y11-M">
    <path class="cls-2" d="M49.368,47.8419l-2.3717-1.2884L45.708,48.9251,48.08,50.2135l1.2884-2.3716"/>
    </g>
    <g id="product-04-Y10-L">
    <path class="cls-2" d="M45.5309,58.047l1.2883-2.3717L45.5023,54.96,44.214,57.3316l1.3169.7154"/>
    </g>
    <g id="product-04-X04-B">
    <path class="cls-2" d="M27.3647,89.71l-.5836-2.6351-3.048.675.5835,2.6351,3.0481-.675"/>
    </g>
    <g id="product-04-X15-P">
    <path class="cls-2" d="M29.6553,28.363l2.1277-.4712-.5806-2.6358-2.1307.4718.5836,2.6352"/>
    </g>
    <g id="product-04-Y05-F">
    <path class="cls-2" d="M38.8528,82.0744l-.8945,1.6467h0l0,.0009h0l-.1695.312-.2238.4121,1.6471.8948L40.5,82.9692l-1.6471-.8948"/>
    </g>
    <g id="product-04-X04-C">
    <path class="cls-2" d="M29.3292,86.5093l-.5836-2.6352-2.5473.5641.5836,2.6352,2.5473-.5641"/>
    </g>
    <g id="product-04-X04-A">
    <path class="cls-2" d="M26.7809,87.0736l-.5836-2.6352-3.0481.6751.5836,2.6352,3.0481-.6751"/>
    </g>
    <g id="product-04-X04-D">
    <path class="cls-2" d="M29.913,89.1454,29.3294,86.51l-2.5473.5642.5836,2.6351,2.5473-.5641"/>
    </g>
    <g id="product-04-X04-Ea">
    <path class="cls-2" d="M28.7466,83.8739l.5836,2.6352.8408-.1863.7478-1.3766-.3279-1.4808-1.8443.4085"/>
    </g>
    <g id="product-04-Y11-S">
    <path class="cls-2" d="M39.8864,42.691l-.4017,2.8534,1.4774.8025L42.25,43.9753l-2.364-1.2843"/>
    </g>
    <g id="product-04-X11-B">
    <path class="cls-2" d="M16.1433,53.4787l3.0481-.675-.5836-2.6352-3.048.6751.5835,2.6351"/>
    </g>
    <g id="product-04-Y11-K">
    <path class="cls-2" d="M49.3689,47.8423,48.0805,50.214l1.405.7632,1.2883-2.3716-1.4049-.7633"/>
    </g>
    <g id="product-04-X17-H">
    <path class="cls-2" d="M16.58,20.1969l2.7328-.6052-.3064-1.3834-3.1025-1.0645.6761,3.0531"/>
    </g>
    <g id="product-04-X04-Fa">
    <path class="cls-2" d="M31.5174,87.649l-1.5958-.8669.2488-.4581-.84.186.5836,2.6351,1.8443-.4084-.2409-1.0877"/>
    </g>
    <g id="product-04-Y10-Id">
    <path class="cls-2" d="M46.7321,56.58l1.4635-2.6942-.3111-.169L46.421,56.4106l.3111.169"/>
    </g>
    <g id="product-04-X04-Ga">
    <path class="cls-2" d="M33.8585,85.5062l.4016-2.8534-2.3807.5273-.96,1.7663.2555,1.154,2.6831-.5942"/>
    </g>
    <g id="product-04-Y03-E">
    <path class="cls-2" d="M35.3452,92.4585l1.2883-2.3716-1.6471-.8948-.1432.2636-1.43-.777-.357,2.5362,2.2893,1.2436"/>
    </g>
    <g id="product-04-X04-Hb">
    <path class="cls-2" d="M33.8583,85.5073l-2.6826.5941.3426,1.5469,1.8938,1.0289.4462-3.17"/>
    </g>
    <g id="product-04-Y05-C">
    <path class="cls-2" d="M41.79,80.5971l-1.2883,2.3717,2.3716,1.2884,1.2883-2.3717L41.79,80.5971"/>
    </g>
    <g id="product-04-X03-F">
    <path class="cls-2" d="M30.498,91.7823l.5836,2.6351,1.5715-.348.4016-2.8533-2.5567.5662"/>
    </g>
    <g id="product-04-X03-E">
    <path class="cls-2" d="M29.9142,89.1461l.5836,2.6352,2.5571-.5663.3571-2.5368-.4011-.2179-3.0967.6858"/>
    </g>
    <g id="product-04-Y03-F">
    <path class="cls-2" d="M34.0564,94.8311l1.2883-2.3717L33.0558,91.216l-.4017,2.8533,1.4023.7618"/>
    </g>
    <g id="product-04-X02-A">
    <path class="cls-2" d="M28.5325,94.9829l-3.048.6751.5835,2.6351,3.0481-.675-.5836-2.6352"/>
    </g>
    <g id="product-04-Y08-O">
    <path class="cls-2" d="M37.974,63.16l1.2884-2.3716-1.7868-.9707-.4017,2.8533.9.489"/>
    </g>
    <g id="product-04-X16-P">
    <path class="cls-2" d="M28.4877,23.0907l2.1336-.4725-.1012-.46-2.4229-.8314.39,1.7634"/>
    </g>
    <g id="product-04-X11-R">
    <path class="cls-2" d="M39.4836,45.5453,35.85,46.35l.5806,2.6358,2.6512-.5871.4017-2.8534"/>
    </g>
    <g id="product-04-X10-P">
    <path class="cls-2" d="M34.91,52.0891l.5835,2.6352,2.0982-.4647-.5807-2.6358-2.101.4653"/>
    </g>
    <g id="product-04-X10-O">
    <path class="cls-2" d="M34.3259,49.453l.5836,2.6351,2.1011-.4653L36.43,48.987l-2.1041.466"/>
    </g>
    <g id="product-04-X08-B">
    <path class="cls-2" d="M22.1107,65.9853l-3.0481.675.5836,2.6352,3.048-.675-.5835-2.6352"/>
    </g>
    <g id="product-04-X16-B">
    <path class="cls-2" d="M10.3053,27.1174l3.0481-.675L12.77,23.8073l-3.0481.675.5836,2.6351"/>
    </g>
    <g id="product-04-X16-A">
    <path class="cls-2" d="M9.7215,24.4813l3.0481-.675-.5836-2.6352-3.0481.6751.5836,2.6351"/>
    </g>
    <g id="product-04-X17-F">
    <path class="cls-2" d="M14.735,20.6056l1.8443-.4085-.5836-2.6351-1.8443.4084.5836,2.6352"/>
    </g>
    <g id="product-04-X07-M">
    <path class="cls-2" d="M36.2693,68.38l.4017-2.8533-1.4784.3274.5836,2.6351.4931-.1092"/>
    </g>
    <g id="product-04-X10-Kb">
    <path class="cls-2" d="M32.2724,52.6722l-.5836-2.6352-1.1707.2593.5835,2.6351,1.1708-.2592"/>
    </g>
    <g id="product-04-X12-J">
    <path class="cls-2" d="M27.2037,42.734l-2.6352.5836.5447,2.4594,2.6351-.5835-.5446-2.4595"/>
    </g>
    <g id="product-04-X12-K">
    <path class="cls-2" d="M29.9372,42.1276l-.5836-2.6351-2.7327.6052.5835,2.6351,2.7328-.6052"/>
    </g>
    <g id="product-04-X12-L">
    <path class="cls-2" d="M29.9374,42.1286l-2.7327.6052.5442,2.46.0977-.0216.0393.1752,2.6351-.5836-.5836-2.6352"/>
    </g>
    <g id="product-04-X07-A">
    <path class="cls-2" d="M22.6945,68.6214l-3.0481.6751.5836,2.6351,3.0481-.675-.5836-2.6352"/>
    </g>
    <g id="product-04-X09-C">
    <path class="cls-2" d="M20.36,58.0767l.5836,2.6352,2.5473-.5642-.5836-2.6351-2.5473.5641"/>
    </g>
    <g id="product-04-Y14-J">
    <path class="cls-2" d="M58.3023,40.4035l1.2883-2.3717-2.46-1.3364-1.2883,2.3717,2.46,1.3364"/>
    </g>
    <g id="product-04-X05-C">
    <path class="cls-2" d="M28.1616,81.237l-.5837-2.6354-2.5472.5641.5836,2.6354,2.5473-.5641"/>
    </g>
    <g id="product-04-X10-R">
    <path class="cls-2" d="M37.0118,51.6236l.5806,2.6358.6859-.1519.4017-2.8533-1.6682.3694"/>
    </g>
    <g id="product-04-X10-Q">
    <path class="cls-2" d="M38.68,51.2531,39.0818,48.4l-2.6508.5871.5806,2.6358,1.6685-.3695"/>
    </g>
    <g id="product-04-Y15-H">
    <path class="cls-2" d="M63.34,36.9949l1.6335-3.0071L62.29,33.0645l-1.4094,2.5944,2.46,1.336"/>
    </g>
    <g id="product-04-X15-K">
    <path class="cls-2" d="M23.7992,26.8945l2.6352-.5836-.5836-2.6352-2.6351.5836.5835,2.6352"/>
    </g>
    <g id="product-04-Y10-Q">
    <path class="cls-2" d="M42.0452,50.0092,39.0828,48.4l-.4017,2.8533,2.0758,1.1276,1.2883-2.3716"/>
    </g>
    <g id="product-04-X13-E">
    <path class="cls-2" d="M18.2381,36.4234l.5835,2.6351,1.942-.43L20.18,35.9933l-1.942.43"/>
    </g>
    <g id="product-04-Y10-F">
    <path class="cls-2" d="M52.1,61.6154l1.2884-2.3717-1.6467-.8945L50.453,60.7209l1.6466.8945"/>
    </g>
    <g id="product-04-Y11-A">
    <path class="cls-2" d="M58.34,55.7871l2.677,1.4543L62.3049,54.87l-2.6771-1.4543L58.34,55.7871"/>
    </g>
    <g id="product-04-Y10-D">
    <path class="cls-2" d="M53.3888,59.2442l-1.2883,2.3717,2.3717,1.2884,1.2883-2.3717-2.3717-1.2884"/>
    </g>
    <g id="product-04-Y10-E">
    <path class="cls-2" d="M53.3884,59.2429l1.2884-2.3717-1.7353-.9427-.224.4123.0887.0481-1.0644,1.9594,1.6466.8946"/>
    </g>
    <g id="product-04-Y13-P">
    <path class="cls-2" d="M49.5736,41.8071l1.0222-1.8816-3.1847.7068,2.1625,1.1748"/>
    </g>
    <g id="product-04-X14-E">
    <path class="cls-2" d="M17.654,33.7863l1.8449-.4086-.5836-2.6352-1.8449.4086.5836,2.6352"/>
    </g>
    <g id="product-04-X02-B">
    <path class="cls-2" d="M29.7,100.254l-.5836-2.6349-3.048.675.5835,2.6349,3.0481-.675"/>
    </g>
    <g id="product-04-X14-D">
    <path class="cls-2" d="M15.69,36.9867l2.5473-.5641-.5836-2.6351-2.5473.5641.5836,2.6351"/>
    </g>
    <g id="product-04-X03-B">
    <path class="cls-2" d="M27.9487,92.3469l-3.048.675.5835,2.6351,3.0481-.675-.5836-2.6351"/>
    </g>
    <g id="product-04-X14-C">
    <path class="cls-2" d="M15.1058,34.3506l2.5473-.5641L17.07,31.1513l-2.5473.5641.5836,2.6352"/>
    </g>
    <g id="product-04-Y12-C">
    <path class="cls-2" d="M59.8329,47.3815l-1.2884,2.3716,2.3717,1.2884L62.2045,48.67l-2.3716-1.2883"/>
    </g>
    <g id="product-04-X03-D">
    <path class="cls-2" d="M30.497,91.7825l-2.5473.5641.5836,2.6351,2.5473-.5641-.5836-2.6351"/>
    </g>
    <g id="product-04-X03-C">
    <path class="cls-2" d="M29.9132,89.1463l-2.5473.5642.5836,2.6352,2.5473-.5642-.5836-2.6352"/>
    </g>
    <g id="product-04-X14-B">
    <path class="cls-2" d="M12.6405,37.662l3.0481-.675-.5836-2.6352-3.0481.675.5836,2.6352"/>
    </g>
    <g id="product-04-X14-A">
    <path class="cls-2" d="M12.0567,35.0259l3.0481-.6751-.5836-2.6352-3.0481.6751.5836,2.6352"/>
    </g>
    <g id="product-04-X02-C">
    <path class="cls-2" d="M31.6644,97.0537l-.5836-2.6351-2.5473.5641.5836,2.6352,2.5473-.5642"/>
    </g>
    <g id="product-04-Y15-D">
    <path class="cls-2" d="M67.36,39.1788l2-3.6818-2.5878-.89L64.9886,37.89,67.36,39.1788"/>
    </g>
    <g id="product-04-X10-Ia">
    <path class="cls-2" d="M29.0916,50.7965l-2.7328.6053.3637,1.6422,2.7328-.6052-.3637-1.6423"/>
    </g>
    <g id="product-04-X05-Ia">
    <path class="cls-2" d="M34.8907,76.9821l-1.57.3478.2015.91.8029.4363.02-.0374.446.2423.2022-1.4363-.1025-.4628"/>
    </g>
    <g id="product-04-Y08-J">
    <path class="cls-2" d="M42.8366,68.874l1.2883-2.3716-2.46-1.3364-1.2883,2.3716,2.46,1.3364"/>
    </g>
    <g id="product-04-X05-B">
    <path class="cls-2" d="M26.1971,84.4375l-.5836-2.6352-3.0481.6751.5836,2.6351,3.0481-.675"/>
    </g>
    <g id="product-04-X04-Hb-2" data-name="product-04-X04-Hb">
    <path class="cls-2" d="M33.01,88.46l-1.491-.81.2407,1.0869,1.25-.2769"/>
    </g>
    <g id="product-04-Y13-F">
    <path class="cls-2" d="M59.4742,44.1139l-1.2884,2.3717,1.6467.8945,1.2883-2.3717-1.6466-.8945"/>
    </g>
    <g id="product-04-X06-J">
    <path class="cls-2" d="M34.8905,76.9811l-.5835-2.635-1.571.3479.5836,2.635,1.5709-.3479"/>
    </g>
    <g id="product-04-X06-I">
    <path class="cls-2" d="M34.3067,74.3451,33.7231,71.71l-1.5709.3479.0389.1758.5447,2.4595,1.5709-.3479"/>
    </g>
    <g id="product-04-X06-G">
    <path class="cls-2" d="M28.84,75.5557l2.7328-.6052-.5447-2.46-2.7328.6052.5447,2.46"/>
    </g>
    <g id="product-04-X06-H">
    <path class="cls-2" d="M31.5732,74.9515l-2.7328.6052.5836,2.6351,2.7328-.6053-.5836-2.635"/>
    </g>
    <g id="product-04-X10-N">
    <path class="cls-2" d="M34.9088,52.0893l-2.6352.5836.5836,2.6352,2.6352-.5836-.5836-2.6352"/>
    </g>
    <g id="product-04-X10-M">
    <path class="cls-2" d="M34.325,49.4532l-2.6352.5836.5836,2.6351,2.6352-.5835-.5836-2.6352"/>
    </g>
    <g id="product-04-X10-Lb">
    <path class="cls-2" d="M32.8562,55.3083l-.5836-2.6352-1.1708.2593.5835,2.6352,1.1709-.2593"/>
    </g>
    <g id="product-04-X13-B">
    <path class="cls-2" d="M13.8081,42.9342l3.0481-.675-.5836-2.6352-3.0481.6751.5836,2.6351"/>
    </g>
    <g id="product-04-X02-D">
    <path class="cls-2" d="M32.2511,96.9248l-3.1338.6941.5836,2.6351,2.1486-.4758.4016-2.8534"/>
    </g>
    <g id="product-04-X02-E">
    <path class="cls-2" d="M31.0818,94.4184l.5836,2.6351.5859-.13.4016-2.8534-1.5711.348"/>
    </g>
    <g id="product-04-Y10-O">
    <path class="cls-2" d="M42.0461,50.01l-1.2883,2.3716L43.1294,53.67l1.2884-2.3716L42.0461,50.01"/>
    </g>
    <g id="product-04-Y09-M">
    <path class="cls-2" d="M42.9242,59.7036l1.2884-2.3716L41.841,56.0436l-1.2884,2.3716,2.3716,1.2884"/>
    </g>
    <g id="product-04-Y11-L">
    <path class="cls-2" d="M48.1967,53.35l1.2883-2.3717-1.405-.7632-1.2884,2.3716,1.4051.7633"/>
    </g>
    <g id="product-04-X08-F">
    <path class="cls-2" d="M27.2628,67.4248l-.5453-2.46-2.0576.4556.5836,2.6352,1.8443-.4084-.0383-.1754.2133-.0473"/>
    </g>
    <g id="product-04-Y15-F">
    <path class="cls-2" d="M64.9877,37.89l1.7837-3.2836-1.7967-.6182-1.6336,3.0073,1.6466.8945"/>
    </g>
    <g id="product-04-X10-B">
    <path class="cls-2" d="M19.7754,55.4408l-3.048.675.5835,2.6352,3.0481-.6751-.5836-2.6351"/>
    </g>
    <g id="product-04-Y13-D">
    <path class="cls-2" d="M63.4933,46.2973l-2.3716-1.2884-1.2884,2.3717L62.205,48.669l1.2883-2.3717"/>
    </g>
    <g id="product-04-X03-A">
    <path class="cls-2" d="M27.3649,89.7107l-3.0481.675L24.9,93.0209l3.0481-.675-.5836-2.6352"/>
    </g>
    <g id="product-04-Y07-J">
    <path class="cls-2" d="M40.3449,73.461l1.2024-2.2135-2.3719-1.2886-1.2025,2.2135,2.372,1.2886"/>
    </g>
    <g id="product-04-Y06-F">
    <path class="cls-2" d="M41.7892,80.5958l1.2883-2.3717L41.43,77.3293,40.1421,79.701l1.6471.8948"/>
    </g>
    <g id="product-04-X01-A">
    <path class="cls-2" d="M29.7,100.255l-3.048.675.5835,2.635,3.0481-.675L29.7,100.255"/>
    </g>
    <g id="product-04-X01-D">
    <path class="cls-2" d="M30.2849,102.891l.5836,2.635.1774-.039.4017-2.854-1.1627.258"/>
    </g>
    </g>

</g>

<g id="New_Inner" data-name="New Inner" transform="scale(1, -1), rotate(-28)">
<polyline class="cls-3" points="32.152 65.076 31.291 61.187 26.133 62.328 27.262 67.424 30.945 66.609 30.984 66.785 32.458 66.458 32.357 66.002"/>
<polyline class="cls-3" points="31.186 60.712 31.291 61.187 26.133 62.328 25.55 59.692 30.707 58.55 30.988 59.818"/>
<polyline class="cls-3" points="30.557 57.874 30.707 58.55 25.55 59.692 24.865 56.597 30.021 55.456 30.355 56.963"/>
<polyline class="cls-3" points="24.2 54.601 23.989 53.65 29.455 52.44 30.119 55.434 24.652 56.644 24.48 55.866"/>
<polyline class="cls-3" points="23.21 50.136 22.379 46.383 27.847 45.172 29.092 50.797 28.47 50.933"/>
<polyline class="cls-3" points="27.886 51.063 23.625 52.007 23.423 51.099"/>
<polyline class="cls-3" points="25.826 51.484 25.183 48.646 24.567 45.932"/>
<line class="cls-3" x1="23.0012" y1="49.1248" x2="25.1827" y2="48.6458"/>
<polyline class="cls-3" points="27.442 43.81 26.621 40.097 21.348 41.264 22.477 46.359 27.744 45.173 27.642 44.709"/>
<polyline class="cls-3" points="25.55 35.261 25.452 34.826 20.18 35.993 20.279 36.435"/>
<line class="cls-3" x1="20.4809" y1="37.3335" x2="21.051" y2="39.9215"/>
<polyline class="cls-3" points="21.294 40.993 21.348 41.264 26.621 40.097 26.436 39.261"/>
<line class="cls-3" x1="26.1923" y1="38.1625" x2="25.7154" y2="36.0138"/>
<line class="cls-3" x1="22.8257" y1="35.4262" x2="23.9729" y2="40.6327"/>
<line class="cls-3" x1="20.8199" y1="38.617" x2="26.0279" y2="37.4606"/>
<polyline class="cls-3" points="18.547 37.822 18.237 36.423 15.689 36.988 16.28 39.655 18.821 39.06 18.747 38.727"/>
<polyline class="cls-3" points="18.897 39.4 18.821 39.06 16.28 39.655 16.856 42.26 19.404 41.695 19.088 40.263"/>
<polyline class="cls-3" points="31.135 67.472 30.945 66.609 27.05 67.473 27.727 70.527 31.622 69.666 31.457 68.919"/>
<polyline class="cls-3" points="31.691 69.959 31.622 69.666 27.727 70.527 28.295 73.096 32.19 72.233 31.999 71.367"/>
<line class="cls-3" x1="29.7826" y1="72.6887" x2="29.2247" y2="70.1957"/>
<polyline class="cls-3" points="30.228 90.569 29.913 89.146 27.365 89.711 27.949 92.346 30.498 91.782 30.406 91.366"/>
<polyline class="cls-3" points="30.587 92.184 30.498 91.782 27.949 92.346 28.533 94.982 31.082 94.418 30.771 93.021"/>
<polyline class="cls-3" points="38.565 86.531 39.212 85.341 41.584 86.631 39.007 91.376 36.634 90.086 37.323 88.829"/>
<line class="cls-3" x1="38.1246" y1="87.3419" x2="37.7172" y2="88.0919"/>
<line class="cls-3" x1="40.2962" y1="89.0006" x2="37.9237" y2="87.7117"/>
<polyline class="cls-3" points="35.556 77.415 35.135 77.186 37.884 72.124 42.804 74.798 40.739 78.602"/>
<polyline class="cls-3" points="40.283 79.439 40.055 79.86 36.364 77.855"/>
<line class="cls-3" x1="40.8297" y1="73.7244" x2="38.1092" y2="78.7764"/>
<line class="cls-3" x1="41.4309" y1="77.2254" x2="39.4968" y2="76.1997"/>
<polyline class="cls-3" points="43.677 77.12 44.366 75.852 46.74 77.141 44.161 81.885 41.789 80.597 42.479 79.327"/>
<line class="cls-3" x1="43.2641" y1="77.8829" x2="42.8724" y2="78.6019"/>
<line class="cls-3" x1="45.4444" y1="79.5099" x2="43.1133" y2="78.2424"/>
<polyline class="cls-3" points="51.393 62.915 52.1 61.617 54.473 62.906 51.895 67.649 49.523 66.361 50.201 65.113"/>
<line class="cls-3" x1="50.6385" y1="64.3052" x2="50.9956" y2="63.6477"/>
<line class="cls-3" x1="53.1811" y1="65.2768" x2="50.8079" y2="63.9933"/>
<polyline class="cls-3" points="49.938 61.667 50.538 60.562 45.618 57.889 42.868 62.951 43.378 63.229"/>
<polyline class="cls-3" points="44.149 63.648 47.789 65.624 49.479 62.513"/>
<line class="cls-3" x1="48.5631" y1="59.4893" x2="45.8223" y2="64.5305"/>
<line class="cls-3" x1="49.1048" y1="63.1385" x2="47.1761" y2="62.0925"/>
<polyline class="cls-3" points="55.339 55.652 54.678 56.871 57.049 58.16 59.628 53.415 57.254 52.126 56.565 53.395"/>
<line class="cls-3" x1="56.1212" y1="54.2122" x2="55.7605" y2="54.8776"/>
<line class="cls-3" x1="58.3018" y1="55.7866" x2="55.9669" y2="54.4963"/>
<polyline class="cls-3" points="52.453 57.038 52.805 56.389 47.885 53.715 46.421 56.411 51.341 59.084 51.813 58.218"/>
<polyline class="cls-3" points="53.175 55.499 52.701 56.333 47.973 53.761 49.485 50.978 54.23 53.555 53.58 54.753"/>
<polyline class="cls-3" points="55.33 51.531 55.519 51.183 50.775 48.606 49.485 50.978 54.23 53.555 54.855 52.405"/>
<polyline class="cls-3" points="50.972 48.241 50.775 48.606 55.519 51.183 58.097 46.438 53.351 43.861 51.412 47.432"/>
<polyline class="cls-3" points="60.5 46.154 59.833 47.382 62.204 48.67 64.783 43.925 62.411 42.636 61.732 43.886"/>
<line class="cls-3" x1="61.2877" y1="44.7012" x2="60.9265" y2="45.3662"/>
<line class="cls-3" x1="63.4933" y1="46.2995" x2="61.1208" y2="45.0106"/>
<polyline class="cls-3" points="38.034 80.643 39.266 81.312 37.787 84.034 34.368 82.176 35.868 79.455 36.364 79.736"/>
<line class="cls-3" x1="37.4546" y1="80.3293" x2="36.9489" y2="80.0546"/>
<line class="cls-3" x1="37.1477" y1="80.1615" x2="35.6683" y2="82.8823"/>
<polyline class="cls-3" points="26.714 74.694 26.41 73.329 23.863 73.893 25.029 79.165 27.578 78.601 27.259 77.157"/>
<line class="cls-3" x1="27.0628" y1="76.271" x2="26.9005" y2="75.5557"/>
<line class="cls-3" x1="24.4457" y1="76.5242" x2="26.9939" y2="75.9599"/>
<polyline class="cls-3" points="23.227 58.953 22.908 57.511 20.359 58.077 21.527 63.348 24.076 62.784 23.763 61.372"/>
<line class="cls-3" x1="23.3909" y1="59.6954" x2="23.6029" y2="60.6528"/>
<line class="cls-3" x1="20.9481" y1="60.7119" x2="23.4866" y2="60.1487"/>
<polyline class="cls-3" points="20.882 48.367 20.572 46.967 18.025 47.531 19.192 52.805 21.741 52.24 21.433 50.848"/>
<line class="cls-3" x1="21.2339" y1="49.9541" x2="21.0771" y2="49.2426"/>
<line class="cls-3" x1="18.6076" y1="50.1628" x2="21.1045" y2="49.6155"/>
<polygon class="cls-3" points="8.051 14.986 28.78 108.587 32.368 109.092 71.631 36.818 57.914 32.111 53.698 39.801 34.757 44 29.999 22.518 8.051 14.986"/>
</g>


<g id="new_outer" data-name="new outer" transform="scale(1, -1), rotate(-28)">
<path class="cls-3" d="M35.6221,43.28a2.904,2.904,0,0,1,.1389,1.3682,1.3373,1.3373,0,0,1-.41.45L31.33,48.41l-.4914.4052a1.0007,1.0007,0,0,0-.4124.5993,1.995,1.995,0,0,0,.0275.5937l4.3393,19.4932,2.1481,1.1906L51.9457,43.099l1.0762-2.0122a3.434,3.434,0,0,0,.2731-.9,4.8158,4.8158,0,0,0,.0607-.8742l4.2662-7.8542,14.6609,5.0441L32.6,109.55l-4.1691-.587L7.4545,14.2446,30.52,22.1587l4.6681,21.1865,18.1675-4.0326"/>
</g>


<g id="stairs" transform="scale(1, -1), rotate(-28)">
<path class="cls-4" d="M43.93,57.8186,34.9968,63.565a2.3807,2.3807,0,0,0-.8017.6893,1.5055,1.5055,0,0,0-.1775.8751l.9692,4.4438,1.8167,1.0212-.7667-4.5312a1.4232,1.4232,0,0,1,.0611-.5963,1.5284,1.5284,0,0,1,.5268-.6306l3.4316-2.363a1.6923,1.6923,0,0,1,.8325-.2458,1.2917,1.2917,0,0,1,.5724.1381Z"/>
<line class="cls-3" x1="35.3955" y1="63.3602" x2="36.3763" y2="64.961"/>
<line class="cls-3" x1="35.887" y1="63.0513" x2="36.8678" y2="64.6521"/>
<line class="cls-3" x1="36.3785" y1="62.7424" x2="37.3363" y2="64.3056"/>
<line class="cls-3" x1="36.8701" y1="62.4335" x2="37.8508" y2="64.0343"/>
<line class="cls-3" x1="37.3616" y1="62.1246" x2="38.3423" y2="63.7254"/>
<line class="cls-3" x1="37.8164" y1="61.7559" x2="38.7993" y2="63.3602"/>
<line class="cls-3" x1="38.3079" y1="61.4469" x2="39.2624" y2="63.0049"/>
<line class="cls-3" x1="38.7993" y1="61.1379" x2="39.7439" y2="62.6797"/>
<line class="cls-3" x1="39.2866" y1="60.825" x2="40.2216" y2="62.3483"/>
<line class="cls-3" x1="39.7852" y1="60.513" x2="40.8269" y2="62.2133"/>
<line class="cls-3" x1="40.2734" y1="60.2105" x2="41.4943" y2="62.2033"/>
<line class="cls-3" x1="40.7442" y1="59.8678" x2="41.8157" y2="61.6168"/>
<line class="cls-3" x1="41.2346" y1="59.5571" x2="42.1403" y2="61.0355"/>
<line class="cls-3" x1="41.7229" y1="59.2429" x2="42.464" y2="60.4525"/>
<line class="cls-3" x1="42.2091" y1="58.9254" x2="42.8028" y2="59.8944"/>
<line class="cls-3" x1="42.6974" y1="58.6113" x2="43.1055" y2="59.2774"/>
<line class="cls-3" x1="34.3646" y1="66.7109" x2="36.0802" y2="66.4376"/>
<line class="cls-3" x1="34.2776" y1="66.1201" x2="35.9932" y2="65.8468"/>
<line class="cls-3" x1="34.0238" y1="64.961" x2="36.0979" y2="65.4669"/>
<line class="cls-3" x1="34.4875" y1="63.9192" x2="36.2482" y2="65.1836"/>
<line class="cls-3" x1="34.4875" y1="67.233" x2="36.1585" y2="66.9668"/>
<line class="cls-3" x1="34.6104" y1="67.7551" x2="36.2588" y2="67.4925"/>
<line class="cls-3" x1="34.7333" y1="68.2772" x2="36.3763" y2="68.0155"/>
<line class="cls-3" x1="34.8562" y1="68.7993" x2="36.4501" y2="68.5454"/>
<line class="cls-3" x1="34.9791" y1="69.3214" x2="36.5182" y2="69.0762"/>
<line class="cls-3" x1="35.3468" y1="69.8045" x2="36.6165" y2="69.6022"/>
<path class="cls-4" d="M32.2519,57.9622l6.6591,5.2321s.65.5311.7441.88a1.0136,1.0136,0,0,1-.06.8935c-.1834.4061-2.87,5.5845-2.87,5.5845l-1.3783-.7476,2.3-4.0494a3.0692,3.0692,0,0,0,.2294-.8022.8624.8624,0,0,0-.4018-.6644c-.2253-.1786-2.2832-1.8707-2.8717-2.2891a1.6385,1.6385,0,0,0-.946-.3521,1.2909,1.2909,0,0,0-.5723.1381Z"/>
<line class="cls-3" x1="38.6039" y1="62.953" x2="37.5852" y2="64.3432"/>
<line class="cls-3" x1="38.1177" y1="62.571" x2="37.0943" y2="63.98"/>
<line class="cls-3" x1="37.66" y1="62.2133" x2="36.6721" y2="63.5736"/>
<line class="cls-3" x1="37.1721" y1="61.8973" x2="36.2025" y2="63.2323"/>
<line class="cls-3" x1="36.7309" y1="61.517" x2="35.7388" y2="62.883"/>
<line class="cls-3" x1="36.2692" y1="61.1649" x2="35.3065" y2="62.4904"/>
<line class="cls-3" x1="35.8226" y1="60.7921" x2="34.8257" y2="62.1646"/>
<line class="cls-3" x1="35.3568" y1="60.4456" x2="34.355" y2="61.8249"/>
<line class="cls-3" x1="34.9215" y1="60.0597" x2="33.7886" y2="61.6168"/>
<line class="cls-3" x1="34.4522" y1="59.705" x2="33.0638" y2="61.6168"/>
<line class="cls-3" x1="34.0013" y1="59.3486" x2="32.889" y2="60.88"/>
<line class="cls-3" x1="33.5418" y1="58.9934" x2="32.738" y2="60.1002"/>
<line class="cls-3" x1="33.0637" y1="58.6638" x2="32.5545" y2="59.365"/>
<line class="cls-3" x1="38.9345" y1="66.2585" x2="37.687" y2="65.6967"/>
<line class="cls-3" x1="39.3696" y1="65.342" x2="37.8557" y2="65.1125"/>
<line class="cls-3" x1="39.7095" y1="64.4116" x2="37.8658" y2="64.6649"/>
<line class="cls-3" x1="39.3505" y1="63.6481" x2="37.7291" y2="64.4902"/>
<line class="cls-3" x1="38.6712" y1="66.7109" x2="37.508" y2="66.0839"/>
<line class="cls-3" x1="38.4175" y1="67.2003" x2="37.2199" y2="66.5547"/>
<line class="cls-3" x1="38.1591" y1="67.7547" x2="36.8993" y2="67.0756"/>
<line class="cls-3" x1="37.8557" y1="68.2662" x2="36.6165" y2="67.5982"/>
<line class="cls-3" x1="37.5852" y1="68.7503" x2="36.3299" y2="68.0737"/>
<line class="cls-3" x1="37.3485" y1="69.2581" x2="36.0802" y2="68.5787"/>
<line class="cls-3" x1="37.0833" y1="69.7034" x2="35.8226" y2="69.0118"/>
<line class="cls-3" x1="36.8606" y1="70.1457" x2="35.5568" y2="69.4348"/>
</g>


<g id="white_square" data-name="white square" transform="scale(1, -1), rotate(-28)">
<rect class="cls-5" width="1.68" height="1.5"/>
</g>


<g id="ikoner_vector" data-name="ikoner vector" transform="scale(1, -1), rotate(-28)">

<g id="toalett">
<circle class="cls-1" cx="27.0263" cy="54.5858" r="1.2435"/>

<g id="toilet" >
<rect class="cls-6" x="26.5655" y="54.3288" width="0.0784" height="0.45"/>
<rect class="cls-6" x="26.7034" y="54.3288" width="0.0784" height="0.8182"/>
<rect class="cls-6" x="26.8414" y="54.3288" width="0.0784" height="0.45"/>
<path class="cls-6" d="M26.7426,54.0246a.1082.1082,0,1,0,.1081.1082.1083.1083,0,0,0-.1081-.1082m0,.138a.03.03,0,1,1,.03-.03.03.03,0,0,1-.03.03"/>
<path class="cls-6" d="M27.35,54.241a.1082.1082,0,1,0-.1081-.1082.1082.1082,0,0,0,.1081.1082m0-.138a.03.03,0,1,1-.03.03.03.03,0,0,1,.03-.03"/>
<path class="cls-6" d="M27.3889,54.3288h-.0783a.1719.1719,0,0,1-.1766.1927V54.6a.19.19,0,0,0,.1766-.0941v.002a.1718.1718,0,0,1-.1766.1927v.0784a.19.19,0,0,0,.1766-.0942v.4624h.0783v-.4624a.19.19,0,0,0,.1766.0942V54.7a.1718.1718,0,0,1-.1766-.1927v-.002a.19.19,0,0,0,.1766.0941v-.0783a.1718.1718,0,0,1-.1766-.1927"/>
</g>

</g>

<g id="heis">

<circle class="cls-1" cx="29.5793" cy="69.8705" r="1.2435"/>

<g id="heis-2" data-name="heis">
<path class="cls-6" d="M29.0679,70.5564h1v-1h-1Zm.9042-.0958h-.8085v-.8085h.8085Z"/>
<rect class="cls-6" x="29.4317" y="70.0034" width="0.0958" height="0.409"/>
<rect class="cls-6" x="29.6003" y="70.0034" width="0.0958" height="0.409"/>
<polygon class="cls-6" points="29.346 69.32 29.514 69.488 29.582 69.42 29.346 69.185 29.279 69.252 29.111 69.42 29.178 69.488 29.346 69.32"/>
<polygon class="cls-6" points="29.789 69.488 29.857 69.42 30.025 69.252 29.957 69.185 29.789 69.353 29.621 69.185 29.554 69.252 29.722 69.42 29.789 69.488"/>
<path class="cls-6" d="M29.5718,69.9689a.1322.1322,0,1,0-.1322-.1322.1322.1322,0,0,0,.1322.1322m0-.1686a.0364.0364,0,1,1-.0364.0364.0364.0364,0,0,1,.0364-.0364"/>
</g>

</g>

<g id="hc">
<circle class="cls-1" cx="36.8896" cy="81.7444" r="1.2435"/>

<g id="hctoilet">
<path class="cls-6" d="M36.8645,81.2862a.1437.1437,0,1,0-.1437-.1437.1437.1437,0,0,0,.1437.1437m0-.1832a.04.04,0,1,1-.04.04.04.04,0,0,1,.04-.04"/>
<path class="cls-6" d="M36.8124,82.0009H37.12l.2421.3649.0868-.0575-.273-.4116h-.2593v-.25a.2518.2518,0,0,0,.2346.125v-.104a.2282.2282,0,0,1-.2346-.2561v-.0085h-.1042v.26a.4154.4154,0,1,0,.3907.6523L37.14,82.22a.3112.3112,0,1,1-.3275-.4516v.233Z"/>
</g>

</g>

<g id="toalett-2" data-name="toalett">
<circle class="cls-1" cx="49.655" cy="56.3649" r="1.2435"/>

<g id="toilet-2" data-name="toilet">
<rect class="cls-6" x="49.1942" y="56.1079" width="0.0784" height="0.45"/>
<rect class="cls-6" x="49.3321" y="56.1079" width="0.0784" height="0.8182"/>
<rect class="cls-6" x="49.4701" y="56.1079" width="0.0784" height="0.45"/>
<path class="cls-6" d="M49.3713,55.8037a.1082.1082,0,1,0,.1081.1082.1083.1083,0,0,0-.1081-.1082m0,.138a.03.03,0,1,1,.03-.03.03.03,0,0,1-.03.03"/>
<path class="cls-6" d="M49.9784,56.02a.1082.1082,0,1,0-.1081-.1082.1082.1082,0,0,0,.1081.1082m0-.138a.03.03,0,1,1-.03.03.03.03,0,0,1,.03-.03"/>
<path class="cls-6" d="M50.0176,56.1079h-.0783a.1719.1719,0,0,1-.1766.1927v.0783a.19.19,0,0,0,.1766-.0941v.002a.1718.1718,0,0,1-.1766.1927v.0784a.19.19,0,0,0,.1766-.0942v.4624h.0783v-.4624a.19.19,0,0,0,.1766.0942V56.48a.1718.1718,0,0,1-.1766-.1927v-.002a.19.19,0,0,0,.1766.0941v-.0783a.1718.1718,0,0,1-.1766-.1927"/>
</g>

</g>

</g>

</svg>
